{"glyphs":{"0":{"ha":793,"x_min":34,"x_max":760,"o":"m 34 465 q 61 672 34 581 q 138 825 89 763 q 253 920 187 888 q 396 953 319 953 q 543 920 476 953 q 658 825 610 888 q 733 672 706 763 q 760 465 760 581 q 733 268 760 356 q 658 119 706 180 q 543 24 610 57 q 396 -10 476 -10 q 253 24 319 -10 q 138 119 187 57 q 61 268 89 180 q 34 465 34 356 m 193 465 q 206 313 193 382 q 245 196 219 244 q 309 120 271 147 q 398 93 346 93 q 487 120 449 93 q 550 196 525 147 q 587 313 575 244 q 600 465 600 382 q 550 744 600 642 q 398 846 500 846 q 245 744 297 846 q 193 465 193 642 z "},"1":{"ha":469,"x_min":73,"x_max":380,"o":"m 73 808 l 292 940 l 342 940 q 336 902 338 937 q 334 795 334 867 l 334 145 q 340 84 334 110 q 355 39 346 57 q 371 11 364 21 q 380 0 378 2 l 147 0 q 156 10 148 0 q 172 37 163 19 q 188 81 180 54 q 195 145 195 109 l 195 680 q 193 741 195 722 q 180 764 192 760 q 144 760 169 768 q 73 741 120 752 l 73 808 z "},"2":{"ha":677,"x_min":48,"x_max":632,"o":"m 619 710 q 605 631 619 670 q 548 528 591 591 q 428 365 504 465 q 227 107 351 265 l 477 107 q 537 111 512 107 q 580 124 562 115 q 609 144 597 133 q 632 174 621 156 l 619 0 l 48 0 l 49 94 q 200 289 125 196 q 334 461 275 382 q 431 604 394 540 q 468 717 468 669 q 457 765 468 741 q 425 808 447 789 q 371 840 404 827 q 295 852 338 852 q 168 824 222 852 q 96 754 115 795 l 96 902 q 186 937 129 921 q 330 953 243 953 q 445 935 393 953 q 537 884 498 916 q 598 807 576 851 q 619 710 619 763 z "},"3":{"ha":677,"x_min":80,"x_max":619,"o":"m 619 270 q 595 158 619 209 q 529 70 572 107 q 432 14 487 34 q 314 -6 377 -6 q 170 10 227 -6 q 80 45 113 26 l 80 193 q 152 123 99 152 q 279 94 206 94 q 358 109 322 94 q 417 146 393 123 q 455 200 442 169 q 468 263 468 230 q 458 328 468 297 q 425 384 449 359 q 361 425 401 409 q 260 442 321 441 l 184 442 l 184 538 l 260 538 q 361 555 321 540 q 425 595 401 570 q 458 651 449 619 q 468 717 468 683 q 457 765 468 741 q 425 808 447 789 q 371 840 404 827 q 295 852 338 852 q 168 824 222 852 q 96 754 115 795 l 96 902 q 186 937 129 921 q 330 953 243 953 q 445 935 393 953 q 537 884 498 916 q 598 807 576 851 q 619 710 619 763 q 610 651 619 683 q 580 588 600 619 q 528 531 560 557 q 450 490 495 504 q 528 451 496 477 q 581 394 560 425 q 611 329 602 362 q 619 270 619 295 z "},"4":{"ha":750,"x_min":45,"x_max":717,"o":"m 707 263 l 573 263 l 573 145 q 580 84 573 110 q 595 39 586 57 q 611 11 603 21 q 619 0 618 2 l 386 0 q 395 10 388 0 q 411 37 402 19 q 427 81 420 54 q 434 145 434 109 l 434 263 l 45 263 l 45 351 l 452 940 l 581 940 q 576 902 578 937 q 573 795 573 867 l 573 370 q 657 380 619 370 q 717 418 694 390 l 707 263 m 434 777 q 411 734 429 766 q 366 660 393 702 q 309 571 340 618 q 250 483 278 524 q 199 411 222 442 q 164 372 176 380 l 434 370 l 434 777 z "},"5":{"ha":674,"x_min":80,"x_max":631,"o":"m 219 581 l 303 581 q 464 551 401 581 q 564 476 527 520 q 616 380 602 431 q 631 286 631 329 q 607 172 631 225 q 540 78 583 118 q 443 16 498 38 q 326 -6 388 -6 q 176 10 238 -6 q 80 45 113 26 l 80 193 q 158 123 99 152 q 291 94 217 94 q 369 111 334 94 q 429 154 404 128 q 466 213 453 180 q 479 279 479 246 q 469 346 479 313 q 436 408 460 380 q 372 454 412 436 q 271 474 332 473 l 89 474 l 126 940 l 578 940 l 586 779 q 536 821 570 808 q 431 833 503 833 l 238 833 l 219 581 z "},"6":{"ha":698,"x_min":35,"x_max":672,"o":"m 407 849 q 330 829 367 849 q 263 769 292 808 q 215 677 233 731 q 196 557 196 623 q 278 603 227 584 q 388 623 329 623 q 520 595 466 623 q 608 523 575 567 q 657 425 642 479 q 672 321 672 372 q 647 194 672 254 q 580 89 623 134 q 481 17 536 43 q 362 -10 425 -10 q 225 22 286 -10 q 122 113 164 54 q 57 251 80 171 q 35 431 35 332 q 65 642 35 546 q 144 807 94 738 q 263 915 195 876 q 409 953 330 953 q 600 921 512 953 l 602 766 q 407 849 533 849 m 354 516 q 271 499 318 516 q 196 442 225 482 q 239 178 196 263 q 358 93 281 93 q 426 111 396 93 q 477 160 457 129 q 507 229 496 190 q 517 308 517 268 q 480 460 517 404 q 354 516 442 516 z "},"7":{"ha":635,"x_min":30,"x_max":615,"o":"m 613 894 q 559 774 589 846 q 495 619 528 702 q 428 447 461 536 q 367 275 394 358 q 322 120 340 192 q 299 0 303 48 l 128 0 q 155 120 134 49 q 208 270 176 190 q 276 433 239 350 q 351 594 313 517 q 423 733 390 670 q 482 833 457 795 l 185 833 q 83 817 115 833 q 30 766 51 800 l 43 940 l 615 940 l 613 894 z "},"8":{"ha":704,"x_min":42,"x_max":667,"o":"m 42 259 q 53 328 42 292 q 89 397 65 364 q 144 454 112 429 q 216 492 176 479 q 108 594 142 533 q 73 707 73 655 q 94 805 73 760 q 152 883 115 849 q 240 935 190 916 q 351 953 291 953 q 462 935 410 953 q 552 883 514 916 q 611 805 589 849 q 632 707 632 760 q 628 653 632 680 q 611 599 624 626 q 572 544 597 572 q 503 490 546 516 q 580 439 548 468 q 631 379 611 410 q 659 317 650 348 q 667 260 667 286 q 642 150 667 200 q 573 65 616 101 q 473 12 530 30 q 353 -6 415 -6 q 234 12 291 -6 q 135 65 177 30 q 67 148 93 99 q 42 259 42 198 m 516 254 q 499 313 516 287 q 455 358 482 338 q 390 396 428 378 q 313 429 353 413 q 223 358 252 405 q 193 254 193 311 q 204 195 193 223 q 237 144 216 166 q 288 109 259 123 q 354 96 318 96 q 423 109 393 96 q 473 144 453 123 q 504 195 493 166 q 516 254 516 223 m 487 710 q 478 758 487 733 q 453 803 469 782 q 410 837 436 824 q 351 851 385 851 q 290 839 314 851 q 249 808 265 827 q 226 765 233 789 q 219 720 219 742 q 261 627 219 663 q 375 554 303 591 q 461 614 436 581 q 487 710 487 647 z "},"9":{"ha":702,"x_min":24,"x_max":664,"o":"m 292 94 q 370 115 332 94 q 437 174 407 136 q 485 267 466 212 q 503 386 503 321 q 421 340 473 359 q 311 321 370 321 q 179 349 233 321 q 90 421 125 377 q 40 518 56 465 q 24 623 24 572 q 49 750 24 690 q 118 855 75 809 q 218 927 161 900 q 337 953 275 953 q 474 921 413 953 q 577 831 535 889 q 642 691 619 773 q 664 512 664 610 q 635 302 664 398 q 555 136 605 206 q 437 29 504 67 q 291 -10 369 -10 q 99 22 187 -10 l 97 177 q 292 94 166 94 m 345 428 q 428 445 382 428 q 503 501 474 461 q 461 765 503 680 q 342 851 418 851 q 273 833 303 851 q 221 784 243 814 q 189 714 200 754 q 179 635 179 675 q 218 484 179 540 q 345 428 257 428 z "},"\u0000":{"ha":3,"x_min":0,"x_max":0,"o":""}," ":{"ha":262,"x_min":0,"x_max":0,"o":""},"!":{"ha":326,"x_min":67,"x_max":268,"o":"m 85 947 l 251 947 l 247 806 l 203 255 l 133 255 l 88 806 l 85 947 m 67 80 q 97 146 67 121 q 168 171 126 171 q 239 146 209 171 q 268 80 268 121 q 239 14 268 38 q 168 -10 209 -10 q 97 14 126 -10 q 67 80 67 38 z "},"\"":{"ha":481,"x_min":67,"x_max":415,"o":"m 67 972 l 192 972 l 192 835 l 176 629 l 83 629 l 67 835 l 67 972 m 291 972 l 415 972 l 415 835 l 399 629 l 307 629 l 291 835 l 291 972 z "},"#":{"ha":870,"x_min":65,"x_max":805,"o":"m 439 0 l 481 219 l 294 219 l 252 0 l 147 0 l 188 219 l 65 219 l 65 324 l 208 324 l 263 623 l 113 623 l 113 728 l 283 728 l 324 947 l 429 947 l 388 728 l 575 728 l 616 947 l 722 947 l 680 728 l 805 728 l 805 623 l 661 623 l 605 324 l 757 324 l 757 219 l 586 219 l 544 0 l 439 0 m 500 324 l 556 623 l 369 623 l 313 324 l 500 324 z "},"$":{"ha":655,"x_min":45,"x_max":624,"o":"m 474 225 q 461 286 474 260 q 426 332 449 311 q 374 370 404 353 q 311 402 345 386 q 218 453 265 425 q 133 520 171 482 q 73 604 96 557 q 49 710 49 651 q 71 807 49 763 q 132 884 93 851 q 223 935 171 916 q 338 953 276 953 q 483 937 426 953 q 573 902 540 921 l 573 754 q 500 824 554 795 q 374 852 447 852 q 243 816 286 852 q 201 733 201 779 q 216 680 201 704 q 256 635 231 656 q 314 594 281 613 q 380 556 346 575 q 476 496 431 527 q 553 430 520 466 q 605 350 586 394 q 624 247 624 305 q 600 141 624 190 q 533 57 576 93 q 432 2 490 22 q 305 -18 374 -18 q 154 -2 214 -18 q 59 34 94 14 l 45 200 q 82 156 57 177 q 139 118 107 134 q 207 93 171 102 q 278 83 243 83 q 362 96 326 83 q 423 129 398 109 q 461 174 449 148 q 474 225 474 200 m 287 1054 l 377 1054 l 377 -137 l 287 -137 l 287 1054 z "},"%":{"ha":926,"x_min":30,"x_max":891,"o":"m 187 0 l 80 0 q 92 16 85 6 q 120 55 99 26 q 180 143 140 85 q 291 304 220 201 q 467 562 361 407 q 726 940 573 717 l 837 940 l 187 0 m 527 225 q 541 330 527 284 q 581 406 556 375 q 639 454 607 437 q 709 471 672 471 q 778 454 746 471 q 837 406 811 437 q 876 330 862 375 q 891 225 891 284 q 876 127 891 171 q 837 53 862 83 q 778 6 811 22 q 709 -10 746 -10 q 639 6 672 -10 q 581 53 607 22 q 541 127 556 83 q 527 225 527 171 m 634 225 q 654 107 634 152 q 709 62 674 62 q 762 107 742 62 q 782 225 782 152 q 762 351 782 305 q 709 398 742 398 q 654 351 674 398 q 634 225 634 305 m 30 704 q 45 809 30 763 q 85 885 59 854 q 143 933 110 916 q 212 950 176 950 q 282 933 249 950 q 340 885 314 916 q 380 809 366 854 q 394 704 394 763 q 380 606 394 650 q 340 532 366 562 q 282 485 314 501 q 212 469 249 469 q 143 485 176 469 q 85 532 110 501 q 45 606 59 562 q 30 704 30 650 m 137 704 q 157 586 137 631 q 212 541 177 541 q 266 586 246 541 q 286 704 286 631 q 266 830 286 784 q 212 876 246 876 q 157 830 177 876 q 137 704 137 784 z "},"&":{"ha":1019,"x_min":38,"x_max":996,"o":"m 629 754 q 614 674 629 710 q 572 607 599 637 q 513 555 546 578 q 447 516 481 532 l 675 273 q 709 352 698 313 q 723 425 720 391 q 719 489 726 460 q 693 532 712 519 l 896 532 q 848 485 864 517 q 832 418 833 452 q 812 311 829 375 q 757 185 795 247 q 819 133 785 153 q 885 105 852 113 q 947 99 918 96 q 996 117 977 102 q 988 75 996 97 q 963 34 980 53 q 919 4 945 16 q 854 -8 892 -8 q 752 16 798 -8 q 663 83 706 40 q 539 17 611 42 q 366 -8 466 -8 q 244 10 303 -8 q 140 60 185 27 q 66 140 94 93 q 38 249 38 188 q 57 348 38 303 q 105 427 75 393 q 170 487 134 461 q 239 532 206 512 q 164 627 195 578 q 133 742 133 677 q 151 824 133 785 q 201 890 169 862 q 277 935 233 918 q 372 953 321 951 q 483 937 434 953 q 564 894 532 921 q 612 830 595 867 q 629 754 629 793 m 380 89 q 496 110 444 89 q 587 164 548 131 l 308 461 q 218 386 257 433 q 179 268 179 338 q 194 197 179 230 q 236 140 209 164 q 300 103 263 117 q 380 89 337 89 m 489 757 q 458 830 487 800 q 385 860 429 860 q 306 827 334 860 q 278 754 278 793 q 305 668 278 707 q 377 591 332 629 q 463 664 436 626 q 489 757 490 702 z "},"'":{"ha":251,"x_min":67,"x_max":192,"o":"m 67 972 l 192 972 l 192 835 l 176 629 l 83 629 l 67 835 l 67 972 z "},"(":{"ha":433,"x_min":65,"x_max":410,"o":"m 310 -239 q 125 65 184 -85 q 67 366 65 216 q 125 666 65 516 q 310 971 184 816 l 410 971 q 330 838 367 912 q 265 684 292 765 q 223 522 238 603 q 208 366 208 441 q 223 209 208 291 q 265 47 238 128 q 330 -107 292 -34 q 410 -239 367 -180 l 310 -239 z "},")":{"ha":433,"x_min":26,"x_max":370,"o":"m 26 -239 q 106 -107 69 -180 q 171 47 144 -34 q 213 209 198 128 q 228 366 228 291 q 213 522 228 441 q 171 684 198 603 q 106 838 144 765 q 26 971 69 912 l 126 971 q 311 666 252 816 q 369 366 370 516 q 311 65 370 216 q 126 -239 252 -85 l 26 -239 z "},"*":{"ha":493,"x_min":19,"x_max":473,"o":"m 246 674 l 164 525 l 59 592 l 172 710 l 19 739 l 59 857 l 203 784 l 179 956 l 313 956 l 289 784 l 433 857 l 473 739 l 319 710 l 433 592 l 327 525 l 246 674 z "},"+":{"ha":736,"x_min":77,"x_max":683,"o":"m 433 730 l 433 479 l 683 479 l 683 374 l 433 374 l 433 123 l 327 123 l 327 374 l 77 374 l 77 479 l 327 479 l 327 730 l 433 730 z "},",":{"ha":330,"x_min":67,"x_max":268,"o":"m 268 53 q 221 -85 268 -21 q 73 -172 174 -148 q 129 -111 104 -148 q 153 -45 153 -73 q 144 -19 153 -32 q 123 -2 136 -6 q 82 30 97 8 q 67 80 67 51 q 97 146 67 121 q 168 171 126 171 q 239 140 209 171 q 268 53 268 109 z "},"-":{"ha":567,"x_min":77,"x_max":492,"o":"m 77 399 l 492 399 l 492 294 l 77 294 l 77 399 z "},".":{"ha":330,"x_min":67,"x_max":268,"o":"m 67 80 q 97 146 67 121 q 168 171 126 171 q 239 146 209 171 q 268 80 268 121 q 239 14 268 38 q 168 -10 209 -10 q 97 14 126 -10 q 67 80 67 38 z "},"/":{"ha":487,"x_min":21,"x_max":479,"o":"m 21 -241 l 372 971 l 479 971 l 128 -241 l 21 -241 z "},":":{"ha":330,"x_min":67,"x_max":268,"o":"m 67 80 q 97 146 67 121 q 168 171 126 171 q 239 146 209 171 q 268 80 268 121 q 239 14 268 38 q 168 -10 209 -10 q 97 14 126 -10 q 67 80 67 38 m 67 559 q 97 625 67 600 q 168 650 126 650 q 239 625 209 650 q 268 559 268 600 q 239 493 268 517 q 168 469 209 469 q 97 493 126 469 q 67 559 67 517 z "},";":{"ha":330,"x_min":67,"x_max":268,"o":"m 67 559 q 97 625 67 600 q 168 650 126 650 q 239 625 209 650 q 268 559 268 600 q 239 493 268 517 q 168 469 209 469 q 97 493 126 469 q 67 559 67 517 m 268 53 q 221 -85 268 -21 q 73 -172 174 -148 q 129 -111 104 -148 q 153 -45 153 -73 q 144 -19 153 -32 q 123 -2 136 -6 q 82 30 97 8 q 67 80 67 51 q 97 146 67 121 q 168 171 126 171 q 239 140 209 171 q 268 53 268 109 z "},"<":{"ha":736,"x_min":77,"x_max":683,"o":"m 683 702 l 683 597 l 219 426 l 683 255 l 683 150 l 77 374 l 77 479 l 683 702 z "},"=":{"ha":736,"x_min":77,"x_max":683,"o":"m 683 367 l 683 262 l 77 262 l 77 367 l 683 367 m 683 591 l 683 485 l 77 485 l 77 591 l 683 591 z "},">":{"ha":736,"x_min":77,"x_max":683,"o":"m 683 479 l 683 374 l 77 150 l 77 255 l 541 426 l 77 597 l 77 702 l 683 479 z "},"?":{"ha":595,"x_min":54,"x_max":546,"o":"m 179 300 q 212 445 179 388 q 287 548 246 503 q 361 634 327 592 q 394 733 394 675 q 388 778 394 757 q 367 817 382 800 q 329 843 353 833 q 270 852 305 852 q 204 845 238 852 q 139 825 169 838 q 85 794 109 813 q 54 754 62 776 l 54 902 q 168 939 101 924 q 299 953 236 953 q 479 891 412 953 q 546 723 546 829 q 526 633 546 672 q 477 561 506 594 q 413 500 449 528 q 350 441 378 471 q 301 378 321 412 q 281 300 281 343 l 281 255 l 179 255 l 179 300 m 129 80 q 159 146 129 121 q 230 171 188 171 q 301 146 271 171 q 330 80 330 121 q 301 14 330 38 q 230 -10 271 -10 q 159 14 188 -10 q 129 80 129 38 z "},"@":{"ha":1030,"x_min":43,"x_max":993,"o":"m 766 216 q 674 231 720 214 q 607 299 627 249 q 536 227 576 247 q 441 206 495 206 q 372 223 404 206 q 318 271 340 239 q 284 350 295 303 q 278 453 273 396 q 306 561 284 512 q 359 646 327 610 q 429 702 391 682 q 509 722 468 722 q 571 710 546 722 q 618 672 595 698 q 623 698 621 688 q 627 715 626 707 l 736 715 q 727 650 733 712 q 706 450 722 587 q 702 367 701 399 q 714 318 704 335 q 740 293 723 300 q 779 286 757 286 q 858 340 832 286 q 884 492 884 394 q 856 643 884 573 q 780 765 829 714 q 665 845 731 816 q 520 875 599 875 q 384 846 449 875 q 271 764 319 817 q 194 633 222 710 q 166 460 166 556 q 195 295 166 369 q 271 169 223 222 q 384 89 319 117 q 520 61 449 61 q 663 77 594 61 q 782 125 731 93 l 766 29 q 652 -7 718 6 q 517 -21 586 -21 q 335 14 421 -21 q 184 112 249 48 q 81 263 120 176 q 43 460 43 351 q 81 665 43 573 q 184 821 120 757 q 335 919 249 884 q 517 953 421 953 q 702 918 615 953 q 853 821 789 883 q 955 676 918 760 q 993 495 993 592 q 978 383 993 434 q 934 295 963 332 q 863 237 905 259 q 766 216 821 216 m 393 460 q 394 377 388 410 q 412 323 399 343 q 443 295 425 303 q 481 286 461 286 q 514 292 496 286 q 548 313 532 299 q 576 350 564 327 q 591 409 587 374 l 608 575 q 586 625 611 607 q 530 643 560 643 q 439 596 476 642 q 393 460 402 551 z "},"A":{"ha":940,"x_min":18,"x_max":932,"o":"m 611 330 l 292 330 l 230 145 q 217 78 216 105 q 227 34 219 51 q 246 10 236 18 q 257 0 255 2 l 18 0 q 30 11 19 2 q 56 39 42 21 q 85 84 70 57 q 113 145 101 110 l 340 793 q 350 829 346 808 q 350 869 353 849 q 338 908 348 889 q 310 940 329 928 l 538 940 q 542 928 538 940 q 559 885 546 916 q 594 799 572 854 q 650 655 616 744 q 730 441 683 567 q 838 145 776 316 q 866 84 851 110 q 896 40 881 57 q 920 12 910 22 q 932 0 929 2 l 658 0 q 667 9 658 2 q 682 33 675 16 q 689 77 688 49 q 675 145 690 104 l 611 330 m 326 431 l 575 431 l 447 776 l 326 431 z "},"B":{"ha":752,"x_min":51,"x_max":709,"o":"m 656 696 q 614 580 656 634 q 498 509 572 525 q 590 477 551 500 q 655 422 629 453 q 695 354 682 391 q 709 279 709 316 q 683 162 709 214 q 611 74 658 110 q 500 19 565 38 q 354 0 434 0 l 51 0 q 60 10 53 0 q 76 37 67 19 q 92 81 85 54 q 99 145 99 109 l 99 795 q 92 856 99 830 q 77 901 85 883 q 61 929 69 920 q 51 940 53 939 l 318 940 q 567 884 477 940 q 656 696 656 827 m 238 447 l 238 107 l 337 107 q 489 158 436 107 q 541 289 541 209 q 490 405 541 362 q 340 447 439 447 l 238 447 m 238 833 l 238 544 l 326 544 q 445 584 401 544 q 489 686 489 624 q 443 800 489 766 q 322 833 398 833 l 238 833 z "},"C":{"ha":801,"x_min":34,"x_max":765,"o":"m 201 465 q 227 312 201 382 q 298 193 254 243 q 399 116 342 144 q 517 88 457 88 q 589 95 552 88 q 659 115 626 102 q 720 148 693 128 q 765 195 747 168 l 765 49 q 647 6 718 21 q 493 -10 575 -10 q 321 24 404 -10 q 174 119 238 57 q 72 268 110 180 q 34 465 34 356 q 73 672 34 581 q 179 825 113 763 q 328 920 244 888 q 498 953 412 953 q 655 937 592 953 q 755 902 718 921 l 755 754 q 667 826 728 800 q 514 852 607 852 q 392 825 449 852 q 293 746 335 797 q 226 624 251 696 q 201 465 201 552 z "},"D":{"ha":856,"x_min":51,"x_max":824,"o":"m 51 0 q 60 10 53 0 q 76 37 67 19 q 92 81 85 54 q 99 145 99 109 l 99 795 q 92 856 99 830 q 77 901 85 883 q 61 929 69 920 q 51 940 53 939 l 380 940 q 553 909 473 940 q 694 818 634 878 q 789 670 754 758 q 824 465 824 581 q 789 270 824 356 q 694 124 754 184 q 553 32 634 64 q 380 0 473 0 l 51 0 m 238 833 l 238 102 l 382 102 q 496 128 444 102 q 586 200 549 153 q 643 314 623 247 q 664 465 664 382 q 586 738 664 642 q 382 833 508 833 l 238 833 z "},"E":{"ha":634,"x_min":51,"x_max":595,"o":"m 586 0 l 51 0 q 60 10 53 0 q 76 37 67 19 q 92 81 85 54 q 99 145 99 109 l 99 795 q 92 859 99 832 q 76 904 85 886 q 60 931 67 921 q 51 940 53 940 l 587 940 l 595 773 q 546 817 580 801 q 441 833 512 833 l 238 833 l 238 535 l 444 535 q 493 542 473 535 q 528 557 514 549 q 551 573 543 565 q 560 583 559 581 l 560 388 q 552 397 559 390 q 530 412 544 404 q 494 427 516 420 q 444 434 473 434 l 238 434 l 238 107 l 441 107 q 500 111 476 107 q 543 124 525 115 q 572 144 560 133 q 595 174 584 156 l 586 0 z "},"F":{"ha":618,"x_min":51,"x_max":595,"o":"m 238 434 l 238 145 q 244 82 238 109 q 259 38 251 56 q 275 10 268 19 q 284 0 283 2 l 51 0 q 61 11 53 2 q 77 39 69 21 q 92 84 85 57 q 99 145 99 110 l 99 795 q 92 859 99 832 q 76 904 85 886 q 60 931 67 921 q 51 940 53 940 l 587 940 l 595 773 q 546 817 580 801 q 441 833 512 833 l 238 833 l 238 535 l 444 535 q 493 542 473 535 q 528 557 514 549 q 551 573 543 565 q 560 583 559 581 l 560 388 q 552 397 559 390 q 530 412 544 404 q 494 427 516 420 q 444 434 473 434 l 238 434 z "},"G":{"ha":905,"x_min":34,"x_max":875,"o":"m 829 85 q 676 13 768 35 q 492 -10 584 -10 q 319 24 402 -10 q 172 119 236 57 q 71 268 109 180 q 34 465 34 356 q 77 672 34 581 q 191 825 120 763 q 350 920 262 888 q 530 953 439 953 q 687 937 624 953 q 787 902 750 921 l 787 754 q 699 826 760 800 q 546 852 639 852 q 412 825 474 852 q 303 746 350 797 q 228 624 255 696 q 201 465 201 552 q 227 312 201 382 q 295 193 252 243 q 395 116 338 144 q 514 88 452 88 q 605 98 559 88 q 690 129 651 109 l 690 327 q 682 386 690 362 q 667 425 675 410 q 651 448 659 441 q 642 457 643 455 l 875 457 q 866 449 873 455 q 850 427 859 442 q 835 387 841 412 q 829 327 829 362 l 829 85 z "},"H":{"ha":876,"x_min":51,"x_max":835,"o":"m 789 145 q 795 84 789 110 q 810 39 801 57 q 826 11 819 21 q 835 0 833 2 l 602 0 q 611 10 603 0 q 627 37 618 19 q 643 81 635 54 q 650 145 650 109 l 650 442 l 238 442 l 238 145 q 244 84 238 110 q 259 39 251 57 q 275 11 268 21 q 284 0 283 2 l 51 0 q 60 10 53 0 q 76 37 67 19 q 92 81 85 54 q 99 145 99 109 l 99 795 q 92 856 99 830 q 77 901 85 883 q 61 929 69 920 q 51 940 53 939 l 284 940 q 275 929 283 939 q 259 902 268 920 q 244 857 251 884 q 238 795 238 830 l 238 543 l 650 543 l 650 795 q 643 856 650 830 q 627 901 635 883 q 611 929 619 920 q 602 940 603 939 l 835 940 q 826 929 833 939 q 810 902 819 920 q 795 857 801 884 q 789 795 789 830 l 789 145 z "},"I":{"ha":327,"x_min":51,"x_max":284,"o":"m 238 145 q 244 84 238 110 q 259 39 251 57 q 275 11 268 21 q 284 0 283 2 l 51 0 q 60 10 53 0 q 76 37 67 19 q 92 81 85 54 q 99 145 99 109 l 99 795 q 92 856 99 830 q 77 901 85 883 q 61 929 69 920 q 51 940 53 939 l 284 940 q 275 929 283 939 q 259 902 268 920 q 244 857 251 884 q 238 795 238 830 l 238 145 z "},"J":{"ha":327,"x_min":-101,"x_max":284,"o":"m 238 97 q 215 -64 238 0 q 158 -165 192 -128 q 86 -218 125 -203 q 18 -233 48 -233 q -57 -215 -29 -233 q -101 -169 -85 -196 q -34 -158 -69 -169 q 31 -117 2 -147 q 80 -31 61 -86 q 99 113 99 24 l 99 795 q 92 856 99 830 q 77 901 85 883 q 61 929 69 920 q 51 940 53 939 l 284 940 q 275 929 283 939 q 259 902 268 920 q 244 857 251 884 q 238 795 238 830 l 238 97 z "},"K":{"ha":845,"x_min":51,"x_max":821,"o":"m 238 527 l 487 825 q 515 874 508 854 q 520 907 522 894 q 512 928 519 920 q 500 940 504 936 l 773 940 q 711 904 755 932 q 626 825 667 876 l 377 532 l 685 115 q 724 69 704 89 q 763 36 744 49 q 797 14 782 22 q 821 0 813 5 l 514 0 q 527 13 520 5 q 535 34 533 21 q 530 66 536 46 q 504 115 524 86 l 238 471 l 238 145 q 244 84 238 110 q 259 39 251 57 q 275 11 268 21 q 284 0 283 2 l 51 0 q 60 10 53 0 q 76 37 67 19 q 92 81 85 54 q 99 145 99 109 l 99 795 q 92 856 99 830 q 77 901 85 883 q 61 929 69 920 q 51 940 53 939 l 284 940 q 275 929 283 939 q 259 902 268 920 q 244 857 251 884 q 238 795 238 830 l 238 527 z "},"L":{"ha":610,"x_min":51,"x_max":595,"o":"m 586 0 l 51 0 q 60 10 53 0 q 76 37 67 19 q 92 81 85 54 q 99 145 99 109 l 99 795 q 92 856 99 830 q 77 901 85 883 q 61 929 69 920 q 51 940 53 939 l 284 940 q 275 929 283 939 q 259 902 268 920 q 244 857 251 884 q 238 795 238 830 l 238 145 l 238 107 l 441 107 q 500 113 476 107 q 543 128 525 118 q 572 151 560 137 q 595 182 584 164 l 586 0 z "},"M":{"ha":1119,"x_min":49,"x_max":1065,"o":"m 216 940 q 233 906 214 939 q 295 794 252 873 q 407 582 338 715 q 573 247 476 449 q 714 564 655 433 q 813 777 774 694 q 869 900 851 860 q 886 940 888 939 l 1065 940 q 1055 929 1063 939 q 1039 901 1047 920 q 1024 856 1031 883 q 1017 795 1017 830 l 1017 145 q 1024 81 1017 109 q 1040 37 1031 54 q 1056 10 1049 19 q 1065 0 1063 0 l 832 0 q 841 11 833 2 q 856 39 848 21 q 872 84 865 57 q 878 145 878 110 l 878 645 q 777 433 825 538 q 691 240 730 329 q 627 88 653 152 q 591 0 600 24 l 532 0 q 501 64 525 16 q 445 176 477 112 q 374 312 412 239 q 303 451 337 385 q 243 569 270 517 q 206 645 216 621 l 206 145 q 212 84 206 110 q 227 39 219 57 q 243 11 236 21 q 252 0 251 2 l 49 0 q 58 10 51 0 q 74 37 65 19 q 90 81 83 54 q 97 145 97 109 l 97 795 q 90 856 97 830 q 75 901 83 883 q 59 929 67 920 q 49 940 51 939 l 216 940 l 216 940 z "},"N":{"ha":883,"x_min":46,"x_max":843,"o":"m 795 0 l 717 0 q 682 47 717 0 q 592 166 647 94 q 474 323 538 238 q 354 485 410 409 q 256 616 297 560 q 209 686 216 672 l 209 145 q 216 84 209 110 q 231 39 222 57 q 247 11 239 21 q 255 0 254 2 l 46 0 q 55 10 48 0 q 71 37 62 19 q 87 81 80 54 q 94 145 94 109 l 94 795 q 87 856 94 830 q 72 901 80 883 q 56 929 64 920 q 46 940 48 939 l 190 940 q 222 896 188 939 q 306 788 255 854 q 417 643 356 722 q 534 490 479 564 q 630 359 589 417 q 683 278 670 302 l 683 795 q 676 856 683 830 q 661 901 669 883 q 645 929 653 920 q 635 940 637 939 l 843 940 q 834 929 841 939 q 818 902 827 920 q 803 857 809 884 q 797 795 797 830 l 795 0 z "},"O":{"ha":955,"x_min":34,"x_max":920,"o":"m 34 465 q 69 672 34 581 q 166 825 105 763 q 307 920 227 888 q 476 953 386 953 q 649 920 568 953 q 789 825 730 888 q 884 672 849 763 q 920 465 920 581 q 884 268 920 356 q 789 119 849 180 q 649 24 730 57 q 476 -10 568 -10 q 307 24 386 -10 q 166 119 227 57 q 69 268 105 180 q 34 465 34 356 m 193 465 q 214 313 193 382 q 273 196 235 244 q 363 120 311 147 q 477 93 415 93 q 592 120 540 93 q 682 196 645 147 q 739 313 718 244 q 760 465 760 382 q 739 623 760 552 q 682 744 718 694 q 592 820 645 793 q 477 846 540 846 q 363 820 415 846 q 273 744 311 793 q 214 623 235 694 q 193 465 193 552 z "},"P":{"ha":686,"x_min":51,"x_max":666,"o":"m 238 367 l 238 145 q 244 84 238 110 q 259 39 251 57 q 275 11 268 21 q 284 0 283 2 l 51 0 q 60 10 53 0 q 76 37 67 19 q 92 81 85 54 q 99 145 99 109 l 99 795 q 92 856 99 830 q 77 901 85 883 q 61 929 69 920 q 51 940 53 939 l 292 940 q 441 924 372 940 q 560 873 509 908 q 638 781 610 838 q 666 645 666 725 q 638 526 666 578 q 560 439 610 474 q 441 386 509 404 q 292 367 372 367 l 238 367 m 238 833 l 238 469 l 294 469 q 451 516 396 469 q 506 645 506 562 q 451 792 506 750 q 294 833 396 833 l 238 833 z "},"Q":{"ha":956,"x_min":34,"x_max":953,"o":"m 953 -94 q 911 -180 950 -147 q 809 -214 872 -214 q 651 -168 736 -214 q 493 -10 567 -123 l 476 -10 q 307 24 386 -10 q 166 119 227 57 q 69 268 105 180 q 34 465 34 356 q 69 672 34 581 q 166 825 105 763 q 307 920 227 888 q 476 953 386 953 q 649 920 568 953 q 789 825 730 888 q 884 672 849 763 q 920 465 920 581 q 898 307 920 378 q 837 177 876 235 q 745 79 798 120 q 627 16 691 38 q 694 -52 653 -26 q 780 -91 734 -78 q 871 -104 825 -104 q 953 -94 916 -104 m 193 465 q 214 313 193 382 q 273 196 235 244 q 363 120 311 147 q 477 93 415 93 q 592 120 540 93 q 682 196 645 147 q 739 313 718 244 q 760 465 760 382 q 739 623 760 552 q 682 744 718 694 q 592 820 645 793 q 477 846 540 846 q 363 820 415 846 q 273 744 311 793 q 214 623 235 694 q 193 465 193 552 z "},"R":{"ha":793,"x_min":51,"x_max":768,"o":"m 238 383 l 238 145 q 244 84 238 110 q 259 39 251 57 q 275 11 268 21 q 284 0 283 2 l 51 0 q 60 10 53 0 q 76 37 67 19 q 92 81 85 54 q 99 145 99 109 l 99 795 q 92 856 99 830 q 77 901 85 883 q 61 929 69 920 q 51 940 53 939 l 308 940 q 445 924 382 940 q 555 873 509 908 q 627 785 600 838 q 653 658 653 731 q 640 573 653 615 q 605 498 627 532 q 552 441 583 465 q 482 405 520 417 l 655 115 q 719 36 683 64 q 768 0 755 8 l 489 0 q 500 13 493 5 q 511 34 508 21 q 510 68 514 48 q 490 115 506 88 l 327 383 l 238 383 m 238 833 l 238 485 l 294 485 q 445 536 396 485 q 493 658 493 587 q 447 792 493 750 q 310 833 401 833 l 238 833 z "},"S":{"ha":655,"x_min":45,"x_max":624,"o":"m 474 225 q 461 286 474 260 q 426 332 449 311 q 374 370 404 353 q 311 402 345 386 q 218 453 265 425 q 133 520 171 482 q 73 604 96 557 q 49 710 49 651 q 71 807 49 763 q 132 884 93 851 q 223 935 171 916 q 338 953 276 953 q 483 937 426 953 q 573 902 540 921 l 573 754 q 500 824 554 795 q 374 852 447 852 q 243 816 286 852 q 201 733 201 779 q 216 680 201 704 q 256 635 231 656 q 314 594 281 613 q 380 556 346 575 q 476 496 431 527 q 553 430 520 466 q 605 350 586 394 q 624 247 624 305 q 600 141 624 190 q 533 57 576 93 q 432 2 490 22 q 305 -18 374 -18 q 154 -2 214 -18 q 59 34 94 14 l 45 200 q 82 156 57 177 q 139 118 107 134 q 207 93 171 102 q 278 83 243 83 q 362 96 326 83 q 423 129 398 109 q 461 174 449 148 q 474 225 474 200 z "},"T":{"ha":722,"x_min":11,"x_max":706,"o":"m 14 940 l 702 940 l 706 766 q 682 795 694 782 q 653 817 670 808 q 611 829 635 825 q 551 833 586 833 l 428 833 l 428 145 q 434 84 428 110 q 449 39 441 57 q 465 11 458 21 q 474 0 473 2 l 241 0 q 250 10 243 0 q 266 37 257 19 q 282 81 275 54 q 289 145 289 109 l 289 833 l 166 833 q 64 817 96 833 q 11 766 32 800 l 14 940 z "},"U":{"ha":880,"x_min":51,"x_max":835,"o":"m 238 313 q 286 152 238 212 q 431 93 334 93 q 487 98 457 93 q 548 114 517 104 q 604 138 578 125 q 650 169 631 152 l 650 795 q 643 856 650 830 q 627 901 635 883 q 611 929 619 920 q 602 940 603 939 l 835 940 q 826 929 833 939 q 810 902 819 920 q 795 857 801 884 q 789 795 789 830 l 789 145 q 795 84 789 110 q 810 39 801 57 q 826 11 819 21 q 835 0 833 2 l 658 0 q 657 17 659 0 q 651 73 655 34 q 596 39 629 54 q 528 14 564 24 q 456 -3 492 3 q 394 -10 420 -10 q 254 14 310 -10 q 163 81 198 38 q 113 181 128 123 q 99 308 99 239 l 99 795 q 92 856 99 830 q 77 901 85 883 q 61 929 69 920 q 51 940 53 939 l 284 940 q 275 929 283 939 q 259 902 268 920 q 244 857 251 884 q 238 795 238 830 l 238 313 z "},"V":{"ha":939,"x_min":19,"x_max":920,"o":"m 492 220 l 709 795 q 722 857 722 830 q 717 902 722 884 q 705 929 712 920 q 696 940 698 939 l 920 940 q 907 928 916 939 q 883 900 897 918 q 853 856 868 883 q 824 795 838 830 q 706 490 755 618 q 621 275 656 362 q 564 133 586 187 q 532 49 543 78 q 516 10 520 21 q 514 0 512 0 l 423 0 q 420 10 423 0 q 405 50 417 21 q 371 133 393 80 q 315 275 350 187 q 231 490 281 362 q 113 795 182 618 q 55 900 86 864 q 19 940 24 937 l 287 940 q 280 929 287 939 q 268 902 273 920 q 263 857 263 884 q 276 795 263 830 l 492 220 z "},"W":{"ha":1301,"x_min":19,"x_max":1287,"o":"m 421 252 l 635 940 l 707 940 l 923 252 l 1076 795 q 1087 857 1087 830 q 1082 902 1087 884 q 1071 929 1078 920 q 1065 940 1065 939 l 1287 940 q 1255 901 1282 937 q 1205 795 1228 865 q 1111 492 1151 619 q 1043 277 1071 366 q 997 134 1015 188 q 969 50 979 80 q 955 10 959 21 q 953 0 951 0 l 848 0 q 843 22 849 0 q 815 109 837 43 q 754 299 793 176 q 651 626 715 421 q 578 390 608 489 q 525 221 548 291 q 489 109 503 152 q 468 42 476 65 q 457 9 460 18 q 457 0 455 0 l 351 0 q 349 10 351 0 q 336 50 346 21 q 308 134 326 80 q 263 277 291 188 q 194 492 235 366 q 99 795 153 619 q 75 856 88 830 q 50 900 62 883 q 30 928 38 918 q 19 940 21 939 l 279 940 q 273 929 279 939 q 263 902 267 920 q 259 857 259 884 q 270 795 259 830 l 421 252 z "},"X":{"ha":936,"x_min":24,"x_max":923,"o":"m 557 508 l 801 115 q 871 36 833 64 q 923 0 908 8 l 603 0 q 618 13 610 5 q 629 34 626 21 q 628 66 632 46 q 608 115 624 86 l 450 369 l 276 115 q 253 66 259 86 q 250 34 247 46 q 259 13 252 21 q 273 0 267 5 l 24 0 q 45 14 30 5 q 78 36 61 22 q 115 69 96 49 q 150 115 134 89 l 390 466 l 168 825 q 100 904 137 876 q 48 940 62 932 l 366 940 q 351 928 359 936 q 340 907 343 920 q 341 874 337 894 q 361 825 345 854 l 498 603 l 650 825 q 674 874 669 854 q 676 907 678 894 q 667 928 674 920 q 655 940 661 936 l 907 940 q 851 904 891 932 q 776 825 811 876 l 557 508 z "},"Y":{"ha":848,"x_min":6,"x_max":841,"o":"m 498 370 l 498 145 q 504 84 498 110 q 520 39 511 57 q 536 11 528 21 q 544 0 543 2 l 311 0 q 320 10 313 0 q 336 37 327 19 q 352 81 345 54 q 359 145 359 109 l 359 370 l 101 825 q 42 904 72 873 q 6 940 11 936 l 275 940 q 270 930 275 939 q 263 906 265 921 q 263 871 260 891 q 279 825 267 851 l 465 508 l 631 825 q 646 871 643 851 q 646 906 648 891 q 639 930 643 921 q 634 940 635 939 l 841 940 q 805 906 837 936 q 746 825 774 876 l 498 370 z "},"Z":{"ha":766,"x_min":34,"x_max":730,"o":"m 35 94 q 76 160 48 117 q 142 260 104 203 q 227 386 180 318 q 326 530 275 455 q 432 682 378 605 q 536 833 485 758 l 190 833 q 88 817 120 833 q 35 766 56 800 l 38 940 l 730 940 l 730 862 q 663 758 712 830 q 544 583 615 685 q 388 358 474 481 q 212 107 302 236 l 575 107 q 635 111 610 107 q 677 124 659 115 q 706 144 694 133 q 730 174 718 156 l 726 0 l 34 0 l 35 94 z "},"[":{"ha":461,"x_min":80,"x_max":420,"o":"m 410 -239 l 80 -239 q 91 -203 83 -238 q 99 -94 99 -168 l 99 795 q 91 904 99 868 q 80 940 83 939 l 412 940 l 420 837 q 371 860 405 854 q 265 865 337 865 l 238 865 l 238 -164 l 265 -164 q 367 -161 335 -164 q 420 -145 399 -158 l 410 -239 z "},"\\":{"ha":487,"x_min":21,"x_max":479,"o":"m 372 -241 l 21 971 l 128 971 l 479 -241 l 372 -241 z "},"]":{"ha":461,"x_min":48,"x_max":388,"o":"m 48 -145 q 101 -161 69 -158 q 203 -164 133 -164 l 230 -164 l 230 865 l 203 865 q 97 860 131 865 q 48 837 62 854 l 56 940 l 388 940 q 377 904 385 939 q 369 795 369 868 l 369 -94 q 377 -203 369 -168 q 388 -239 385 -238 l 57 -239 l 48 -145 z "},"^":{"ha":591,"x_min":21,"x_max":573,"o":"m 573 490 l 468 490 l 297 845 l 126 490 l 21 490 l 260 985 l 334 985 l 573 490 z "},"_":{"ha":624,"x_min":2,"x_max":623,"o":"m 623 -112 l 623 -217 l 2 -217 l 2 -112 l 623 -112 z "},"`":{"ha":354,"x_min":-57,"x_max":235,"o":"m 21 937 l 101 937 q 115 892 101 920 q 149 837 129 865 q 192 784 169 809 q 235 742 216 758 l 136 742 q 82 774 115 754 q 18 821 49 795 q -35 876 -13 846 q -57 937 -57 907 l 21 937 z "},"a":{"ha":642,"x_min":42,"x_max":586,"o":"m 417 444 q 385 536 417 503 q 291 568 353 568 q 180 548 223 568 q 105 500 137 527 l 105 623 q 144 635 121 629 q 195 648 168 642 q 250 659 222 655 q 305 663 278 663 q 403 651 358 663 q 483 611 449 639 q 536 539 517 583 q 556 431 556 495 l 556 113 q 569 29 556 54 q 586 0 583 3 l 425 0 q 421 24 423 6 q 418 54 418 42 q 345 10 388 29 q 246 -8 302 -8 q 165 5 203 -8 q 101 41 128 18 q 57 97 73 64 q 42 169 42 129 q 74 278 42 233 q 160 351 107 322 q 279 394 212 380 q 417 410 346 407 l 417 444 m 180 184 q 216 109 180 133 q 295 86 251 86 q 366 100 334 86 q 417 134 398 113 l 417 327 q 336 319 378 327 q 259 294 294 311 q 203 249 225 276 q 180 184 180 222 z "},"b":{"ha":715,"x_min":67,"x_max":669,"o":"m 238 581 q 326 642 276 623 q 425 661 375 661 q 524 638 479 661 q 602 573 570 615 q 651 471 634 532 q 669 337 669 410 q 642 194 669 257 q 571 88 615 131 q 469 22 527 45 q 353 0 412 0 l 67 0 q 85 27 70 2 q 99 113 99 53 l 99 859 q 85 943 99 918 q 67 972 70 969 l 268 972 q 251 944 265 969 q 238 859 238 920 l 238 581 m 530 329 q 518 437 530 393 q 485 507 506 481 q 436 545 465 533 q 372 557 407 557 q 295 536 330 557 q 238 485 259 514 l 238 97 l 316 97 q 394 111 356 97 q 463 153 433 125 q 512 226 493 182 q 530 329 530 270 z "},"c":{"ha":595,"x_min":38,"x_max":564,"o":"m 182 319 q 237 145 182 211 q 385 80 292 80 q 485 102 436 80 q 564 166 533 125 l 560 38 q 479 6 538 21 q 348 -10 420 -10 q 227 13 284 -10 q 129 77 171 35 q 63 180 88 118 q 38 319 38 241 q 65 463 38 399 q 136 571 91 527 q 239 639 180 615 q 361 663 297 663 q 415 659 386 663 q 470 651 444 656 q 518 640 496 647 q 552 627 540 634 l 552 503 q 485 549 530 528 q 385 570 441 570 q 237 502 292 570 q 182 319 182 434 z "},"d":{"ha":696,"x_min":37,"x_max":642,"o":"m 37 316 q 61 451 37 388 q 125 560 85 514 q 218 634 164 607 q 332 661 271 661 q 401 655 364 661 q 471 631 437 648 l 471 859 q 457 943 471 918 q 441 972 444 969 l 642 972 q 624 945 639 971 q 610 859 610 920 l 610 113 q 624 29 610 54 q 642 0 639 3 l 477 0 q 473 30 476 10 q 471 72 471 49 q 387 11 433 30 q 292 -8 342 -8 q 190 14 236 -8 q 109 78 144 37 q 56 180 75 120 q 37 316 37 241 m 176 324 q 190 216 176 260 q 227 146 204 172 q 279 108 251 120 q 337 96 308 96 q 414 117 378 96 q 471 168 450 139 l 471 533 q 421 553 447 546 q 369 560 396 560 q 294 546 329 560 q 232 502 259 532 q 191 428 206 473 q 176 324 176 383 z "},"e":{"ha":682,"x_min":38,"x_max":637,"o":"m 346 661 q 561 576 487 661 q 637 346 635 492 l 637 303 l 185 303 q 201 219 185 259 q 244 148 217 179 q 307 98 271 117 q 385 80 343 80 q 439 85 410 80 q 494 101 468 91 q 541 125 520 112 q 575 156 562 139 l 570 38 q 492 6 548 21 q 364 -10 436 -10 q 239 10 299 -10 q 136 71 180 30 q 65 174 91 112 q 38 319 38 236 q 61 456 38 393 q 126 564 85 519 q 223 635 168 610 q 346 661 279 661 m 350 567 q 235 516 278 567 q 185 393 192 466 l 498 393 q 457 516 490 466 q 350 567 423 567 z "},"f":{"ha":429,"x_min":14,"x_max":461,"o":"m 410 564 l 255 564 l 255 113 q 269 29 255 54 q 286 0 283 3 l 85 0 q 102 27 88 2 q 117 113 117 53 l 117 564 l 14 564 l 14 653 l 117 653 l 117 773 q 176 927 117 872 q 326 982 236 982 q 409 973 377 982 q 461 956 441 964 l 461 841 q 424 874 450 862 q 362 886 398 886 q 286 861 316 886 q 255 769 255 837 l 255 653 l 410 653 l 410 564 z "},"g":{"ha":642,"x_min":24,"x_max":645,"o":"m 43 421 q 65 525 43 481 q 125 600 88 570 q 211 647 163 631 q 311 663 259 663 q 390 655 354 663 q 453 639 425 648 q 505 624 482 631 q 549 618 528 618 q 590 624 568 618 q 623 663 611 631 q 640 635 635 650 q 645 605 645 619 q 635 560 645 578 q 608 535 624 543 q 573 528 592 527 q 536 538 554 528 q 567 479 559 509 q 575 421 575 449 q 552 325 575 369 q 492 250 530 281 q 408 202 455 219 q 311 185 361 185 q 274 187 299 185 q 223 196 249 188 q 195 153 195 172 q 226 128 193 136 q 334 117 259 120 q 467 96 413 113 q 552 52 520 78 q 597 -9 584 26 q 610 -80 610 -43 q 590 -167 610 -126 q 532 -239 570 -208 q 441 -288 495 -270 q 319 -307 388 -307 q 208 -295 260 -307 q 117 -263 156 -284 q 54 -210 78 -241 q 27 -139 30 -179 q 42 -68 24 -94 q 85 -26 61 -42 q 150 0 113 -8 q 136 -26 142 -11 q 128 -56 131 -38 q 128 -94 125 -73 q 182 -172 137 -139 q 318 -204 227 -204 q 451 -169 409 -204 q 493 -93 493 -134 q 486 -59 493 -77 q 460 -27 479 -42 q 406 -2 441 -13 q 318 11 372 8 q 144 41 201 18 q 86 113 86 64 q 113 178 86 152 q 164 222 139 204 q 77 302 110 249 q 43 421 43 354 m 192 418 q 225 310 192 351 q 310 268 259 268 q 397 310 364 268 q 429 418 429 351 q 397 536 429 493 q 310 578 364 578 q 225 536 259 578 q 192 418 192 493 z "},"h":{"ha":725,"x_min":67,"x_max":667,"o":"m 238 576 q 335 637 279 613 q 441 661 391 661 q 541 642 503 661 q 601 591 580 623 q 630 520 623 560 q 637 439 637 481 l 637 113 q 651 29 637 54 q 667 0 664 3 l 466 0 q 484 27 469 2 q 498 113 498 53 l 498 428 q 473 523 498 487 q 404 559 447 559 q 317 543 358 559 q 238 495 276 527 l 238 113 q 251 29 238 54 q 268 0 265 3 l 67 0 q 85 27 70 2 q 99 113 99 53 l 99 859 q 85 943 99 918 q 67 972 70 969 l 268 972 q 251 944 265 969 q 238 859 238 920 l 238 576 z "},"i":{"ha":329,"x_min":67,"x_max":268,"o":"m 238 113 q 251 29 238 54 q 268 0 265 3 l 67 0 q 85 27 70 2 q 99 113 99 53 l 99 540 q 85 624 99 599 q 67 653 70 650 l 268 653 q 251 625 265 650 q 238 540 238 600 l 238 113 m 67 854 q 97 920 67 896 q 168 945 126 945 q 239 920 209 945 q 268 854 268 896 q 239 789 268 813 q 168 765 209 765 q 97 789 126 765 q 67 854 67 813 z "},"j":{"ha":329,"x_min":-21,"x_max":268,"o":"m 238 -78 q 199 -226 238 -171 q 97 -281 160 -281 q 23 -263 51 -281 q -21 -217 -5 -244 q 71 -176 43 -217 q 99 -62 99 -136 l 99 540 q 85 624 99 599 q 67 653 70 650 l 268 653 q 251 625 265 650 q 238 540 238 600 l 238 -78 m 67 854 q 97 920 67 896 q 168 945 126 945 q 239 920 209 945 q 268 854 268 896 q 239 789 268 813 q 168 765 209 765 q 97 789 126 765 q 67 854 67 813 z "},"k":{"ha":707,"x_min":67,"x_max":682,"o":"m 388 428 l 597 78 q 617 49 603 62 q 645 24 631 35 q 670 6 659 13 q 682 0 680 0 l 437 0 q 453 25 447 5 q 442 77 460 45 l 292 324 l 238 263 l 238 113 q 251 29 238 54 q 268 0 265 3 l 67 0 q 85 27 70 2 q 99 113 99 53 l 99 859 q 85 943 99 918 q 67 972 70 969 l 268 972 q 251 944 265 969 q 238 859 238 920 l 238 394 l 391 564 q 419 620 420 595 q 410 653 418 645 l 634 653 q 618 645 632 651 q 586 627 603 639 q 549 603 568 616 q 519 573 530 589 l 388 428 z "},"l":{"ha":329,"x_min":67,"x_max":268,"o":"m 238 113 q 251 29 238 54 q 268 0 265 3 l 67 0 q 85 27 70 2 q 99 113 99 53 l 99 859 q 85 943 99 918 q 67 972 70 969 l 268 972 q 251 944 265 969 q 238 859 238 920 l 238 113 z "},"m":{"ha":1052,"x_min":67,"x_max":1003,"o":"m 833 428 q 808 523 833 487 q 739 559 782 559 q 663 539 693 559 q 602 489 632 519 q 604 464 603 476 q 605 439 605 452 l 605 113 q 619 29 605 54 q 635 0 632 3 l 434 0 q 452 27 437 2 q 466 113 466 53 l 466 428 q 441 523 466 487 q 372 559 415 559 q 297 543 326 559 q 238 495 268 527 l 238 113 q 251 29 238 54 q 268 0 265 3 l 67 0 q 85 27 70 2 q 99 113 99 53 l 99 540 q 85 624 99 599 q 67 653 70 650 l 231 653 q 235 627 233 643 q 238 587 238 610 q 319 640 279 619 q 409 661 359 661 q 527 638 485 661 q 586 570 568 615 q 680 636 632 611 q 776 661 728 661 q 876 642 838 661 q 936 591 915 623 q 965 520 958 560 q 972 439 972 481 l 972 113 q 986 29 972 54 q 1003 0 999 3 l 801 0 q 819 27 805 2 q 833 113 833 53 l 833 428 l 833 428 z "},"n":{"ha":725,"x_min":67,"x_max":667,"o":"m 498 428 q 473 523 498 487 q 404 559 447 559 q 317 543 358 559 q 238 495 276 527 l 238 113 q 251 29 238 54 q 268 0 265 3 l 67 0 q 85 27 70 2 q 99 113 99 53 l 99 540 q 85 624 99 599 q 67 653 70 650 l 231 653 q 235 621 233 643 q 238 576 238 599 q 335 637 279 613 q 441 661 391 661 q 541 642 503 661 q 601 591 580 623 q 630 520 623 560 q 637 439 637 481 l 637 113 q 651 29 637 54 q 667 0 664 3 l 466 0 q 484 27 469 2 q 498 113 498 53 l 498 428 l 498 428 z "},"o":{"ha":709,"x_min":38,"x_max":669,"o":"m 38 319 q 64 465 38 401 q 133 572 89 528 q 233 639 176 616 q 354 663 291 663 q 475 639 418 663 q 575 572 532 616 q 643 465 618 528 q 669 319 669 401 q 643 182 669 243 q 575 79 618 121 q 475 14 532 37 q 354 -10 418 -10 q 233 14 291 -10 q 133 79 176 37 q 64 182 89 121 q 38 319 38 243 m 182 319 q 228 145 182 211 q 353 80 275 80 q 477 145 431 80 q 524 319 524 211 q 477 502 524 434 q 353 570 431 570 q 228 502 275 570 q 182 319 182 434 z "},"p":{"ha":722,"x_min":67,"x_max":670,"o":"m 670 337 q 647 194 670 257 q 583 87 624 131 q 489 20 543 43 q 377 -3 436 -3 q 308 3 345 -3 q 238 27 271 10 l 238 -158 q 251 -243 238 -217 q 268 -271 265 -268 l 67 -271 q 85 -244 70 -270 q 99 -158 99 -219 l 99 540 q 85 624 99 599 q 67 653 70 650 l 231 653 q 235 623 233 643 q 238 581 238 603 q 326 642 276 623 q 425 661 375 661 q 524 638 479 661 q 603 573 570 615 q 653 471 635 532 q 670 337 670 410 m 532 329 q 520 437 532 393 q 486 507 508 481 q 436 545 465 533 q 372 557 407 557 q 295 536 330 557 q 238 485 259 514 l 238 125 q 287 105 262 112 q 340 97 313 97 q 414 111 380 97 q 475 153 449 125 q 516 226 501 182 q 532 329 532 270 z "},"q":{"ha":722,"x_min":57,"x_max":669,"o":"m 468 -271 q 485 -243 471 -268 q 498 -158 498 -217 l 498 75 q 411 13 460 34 q 313 -8 362 -8 q 211 14 257 -8 q 130 78 164 37 q 77 180 96 120 q 57 316 57 241 q 80 455 57 391 q 140 564 102 519 q 229 635 179 610 q 335 661 279 661 q 498 595 434 661 q 500 631 498 618 q 504 653 503 643 l 669 653 q 651 624 666 650 q 637 540 637 599 l 637 -158 q 651 -244 637 -219 q 669 -271 666 -270 l 468 -271 m 196 324 q 211 216 196 260 q 248 146 225 172 q 300 108 271 120 q 358 96 329 96 q 438 119 399 96 q 498 171 477 142 l 498 496 q 375 557 455 557 q 250 499 302 557 q 196 324 198 441 z "},"r":{"ha":474,"x_min":67,"x_max":466,"o":"m 409 661 q 433 660 420 661 q 457 656 447 659 l 466 517 q 424 547 449 535 q 372 559 399 559 q 296 541 326 559 q 238 495 267 524 l 238 113 q 251 29 238 54 q 268 0 265 3 l 67 0 q 85 27 70 2 q 99 113 99 53 l 99 540 q 85 624 99 599 q 67 653 70 650 l 231 653 q 235 621 233 643 q 238 576 238 599 q 316 638 273 615 q 409 661 359 661 z "},"s":{"ha":560,"x_min":62,"x_max":509,"o":"m 370 168 q 347 210 370 192 q 291 245 324 228 q 216 280 257 262 q 142 324 176 299 q 85 384 109 350 q 62 468 62 418 q 82 552 62 516 q 136 612 102 587 q 215 650 169 637 q 313 663 260 663 q 409 651 366 663 q 481 627 453 640 l 481 509 q 417 549 461 532 q 322 567 372 567 q 236 548 271 567 q 201 492 201 530 q 224 448 201 466 q 281 413 247 429 q 355 379 314 398 q 429 336 396 361 q 486 276 463 311 q 509 190 509 241 q 489 105 509 142 q 433 43 468 69 q 351 4 398 18 q 252 -10 305 -10 q 149 2 200 -10 q 72 27 99 14 l 64 164 q 143 110 91 134 q 249 86 195 86 q 338 106 305 86 q 370 168 370 126 z "},"t":{"ha":492,"x_min":14,"x_max":476,"o":"m 426 564 l 255 564 l 255 225 q 285 127 255 158 q 361 96 314 96 q 397 101 378 96 q 431 117 415 107 q 459 137 447 126 q 476 161 471 148 l 476 46 q 410 9 447 26 q 308 -8 374 -8 q 162 53 208 -8 q 117 214 117 115 l 117 564 l 14 564 l 14 653 l 117 653 l 117 787 q 195 809 153 792 q 255 840 236 825 l 255 653 l 426 653 l 426 564 z "},"u":{"ha":731,"x_min":67,"x_max":667,"o":"m 236 225 q 262 130 236 166 q 330 94 287 94 q 417 110 377 94 q 496 158 458 126 l 496 540 q 483 624 496 599 q 466 653 469 650 l 667 653 q 650 626 664 651 q 635 540 635 600 l 635 113 q 650 29 635 54 q 667 0 664 3 l 503 0 q 499 32 501 10 q 496 77 496 54 q 399 16 455 40 q 294 -8 343 -8 q 193 11 231 -8 q 133 61 155 30 q 105 133 112 93 q 97 214 97 172 l 97 540 q 84 624 97 599 q 67 653 70 650 l 268 653 q 251 626 265 651 q 236 540 236 600 l 236 225 z "},"v":{"ha":674,"x_min":11,"x_max":663,"o":"m 287 0 q 281 14 287 0 q 253 82 275 29 q 191 243 231 136 q 81 540 150 351 q 38 624 59 599 q 11 653 16 650 l 220 653 q 217 645 220 651 q 212 625 214 639 q 214 591 211 611 q 228 540 217 570 l 358 196 l 487 540 q 501 591 498 570 q 503 625 504 611 q 498 645 501 639 q 495 653 495 651 l 663 653 q 636 624 658 650 q 592 540 615 599 q 516 334 549 420 q 457 184 482 247 q 414 77 433 121 q 383 0 396 34 l 287 0 l 287 0 z "},"w":{"ha":1012,"x_min":11,"x_max":999,"o":"m 642 0 q 638 14 642 0 q 619 68 634 27 q 577 185 605 109 q 504 388 549 262 l 370 0 l 275 0 q 270 16 275 0 q 245 88 265 32 q 186 251 225 144 q 81 540 147 358 q 38 624 59 599 q 11 653 16 650 l 231 653 q 227 644 231 651 q 221 623 223 637 q 220 589 219 610 q 228 540 220 568 l 342 195 l 493 653 l 559 653 l 709 195 l 824 540 q 833 591 832 570 q 833 625 835 611 q 829 645 832 639 q 825 653 825 651 l 999 653 q 972 624 995 650 q 929 540 950 599 l 738 0 l 642 0 l 642 0 z "},"x":{"ha":659,"x_min":19,"x_max":642,"o":"m 394 338 l 538 113 q 607 29 576 54 q 642 0 637 3 l 415 0 q 420 6 417 0 q 423 26 423 13 q 416 61 423 40 q 390 113 409 83 l 319 223 l 246 113 q 221 62 227 83 q 218 28 216 42 q 226 8 220 14 q 231 0 231 2 l 24 0 q 61 29 30 3 q 131 113 93 54 l 263 313 l 121 540 q 55 624 85 599 q 19 653 26 650 l 243 653 q 239 645 243 651 q 236 625 236 639 q 243 591 236 611 q 268 540 249 570 l 338 428 l 412 540 q 438 591 433 570 q 443 627 444 613 q 437 647 442 640 q 431 653 433 653 l 635 653 q 599 624 631 650 q 528 540 568 599 l 394 338 z "},"y":{"ha":672,"x_min":11,"x_max":663,"o":"m 53 -169 q 116 -176 83 -182 q 180 -148 148 -171 q 238 -84 211 -126 q 284 21 265 -42 q 264 66 278 35 q 227 156 251 97 q 167 309 203 216 q 81 540 131 402 q 38 624 59 599 q 11 653 16 650 l 220 653 q 217 645 220 651 q 212 625 214 639 q 214 591 211 611 q 228 540 217 570 l 362 196 l 487 540 q 501 591 498 570 q 503 625 504 611 q 498 645 501 639 q 495 653 495 651 l 663 653 q 636 624 658 650 q 592 540 615 599 q 518 338 549 423 q 463 192 487 254 q 421 86 439 129 q 391 10 404 43 q 323 -131 356 -77 q 259 -216 291 -185 q 196 -257 227 -246 q 137 -268 166 -268 q 71 -238 96 -268 q 53 -169 46 -208 z "},"z":{"ha":544,"x_min":34,"x_max":520,"o":"m 35 78 q 73 140 48 99 q 131 230 99 180 q 197 333 163 279 q 261 433 231 386 q 313 516 291 481 q 343 562 335 551 l 190 562 q 88 551 120 562 q 35 511 56 540 l 38 653 l 520 653 l 520 591 q 485 531 509 572 q 426 439 460 490 q 357 332 393 388 q 289 227 321 276 q 232 140 257 177 q 200 91 208 104 l 366 91 q 425 93 401 91 q 468 100 450 94 q 497 115 485 105 q 520 142 509 125 l 517 0 l 34 0 l 35 78 z "},"{":{"ha":482,"x_min":34,"x_max":441,"o":"m 259 -70 q 277 -140 260 -117 q 334 -164 294 -164 q 400 -161 374 -164 q 441 -145 426 -158 l 431 -239 l 260 -239 q 211 -231 236 -239 q 165 -204 185 -222 q 133 -158 145 -185 q 120 -94 120 -131 l 120 238 q 113 260 118 247 q 98 285 109 273 q 72 305 88 297 q 34 313 56 313 l 34 386 q 77 395 61 386 q 104 416 94 404 q 117 441 113 428 q 120 465 120 455 l 120 795 q 133 859 120 832 q 167 904 147 886 q 212 932 187 923 q 260 940 236 940 l 433 940 l 441 837 q 429 850 433 845 q 415 859 425 856 q 387 864 405 862 q 334 865 369 865 q 280 843 302 865 q 259 757 259 821 l 259 469 q 251 434 259 453 q 232 398 244 415 q 204 370 220 382 q 166 354 187 358 q 235 313 211 342 q 259 252 259 284 l 259 -70 z "},"|":{"ha":276,"x_min":85,"x_max":192,"o":"m 85 -241 l 85 971 l 192 971 l 192 -241 l 85 -241 z "},"}":{"ha":482,"x_min":34,"x_max":441,"o":"m 216 252 q 239 313 216 284 q 308 354 263 342 q 271 370 287 358 q 242 398 254 382 q 223 434 230 415 q 216 469 216 453 l 216 757 q 194 843 216 821 q 140 865 172 865 q 87 864 105 865 q 59 859 69 862 q 45 850 49 856 q 34 837 40 845 l 42 940 l 214 940 q 263 932 238 940 q 307 904 287 923 q 341 859 327 886 q 354 795 354 832 l 354 465 q 358 441 354 455 q 370 416 361 428 q 397 395 380 404 q 441 386 413 386 l 441 313 q 402 305 418 313 q 376 285 386 297 q 361 260 366 273 q 354 238 356 247 l 354 -94 q 342 -158 354 -131 q 309 -204 329 -185 q 263 -231 289 -222 q 214 -239 238 -239 l 43 -239 l 34 -145 q 74 -161 48 -158 q 140 -164 101 -164 q 197 -140 180 -164 q 216 -70 214 -117 l 216 252 z "},"~":{"ha":578,"x_min":26,"x_max":559,"o":"m 413 359 q 338 370 374 359 q 272 394 303 382 q 214 417 241 407 q 164 428 187 428 q 123 412 144 428 q 97 359 102 396 l 26 359 q 73 477 32 439 q 169 514 113 514 q 251 504 214 514 q 320 481 289 493 q 376 457 351 468 q 421 447 401 447 q 461 462 441 447 q 487 514 481 477 l 559 514 q 510 397 551 434 q 413 359 469 359 z "},"¡":{"ha":326,"x_min":67,"x_max":268,"o":"m 85 -297 l 251 -297 l 247 -156 l 203 394 l 133 394 l 88 -156 l 85 -297 m 67 570 q 97 504 67 528 q 168 479 126 479 q 239 504 209 479 q 268 570 268 528 q 239 635 268 611 q 168 659 209 659 q 97 635 126 659 q 67 570 67 611 z "},"¢":{"ha":595,"x_min":38,"x_max":564,"o":"m 182 319 q 237 145 182 211 q 385 80 292 80 q 485 102 436 80 q 564 166 533 125 l 560 38 q 479 6 538 21 q 348 -10 420 -10 q 227 13 284 -10 q 129 77 171 35 q 63 180 88 118 q 38 319 38 241 q 65 463 38 399 q 136 571 91 527 q 239 639 180 615 q 361 663 297 663 q 415 659 386 663 q 470 651 444 656 q 518 640 496 647 q 552 627 540 634 l 552 503 q 485 549 530 528 q 385 570 441 570 q 237 502 292 570 q 182 319 182 434 m 351 798 l 441 798 l 361 -137 l 271 -137 l 351 798 z "},"£":{"ha":682,"x_min":61,"x_max":632,"o":"m 61 479 l 153 479 q 113 568 131 520 q 96 682 96 616 q 117 790 96 741 q 178 876 139 840 q 270 932 217 912 q 385 953 322 953 q 529 937 473 953 q 619 902 586 921 l 619 754 q 547 824 600 795 q 420 852 493 852 q 290 805 332 852 q 247 685 247 757 q 264 575 247 624 q 299 479 281 525 l 524 479 l 524 390 l 329 390 q 337 353 334 372 q 340 314 340 334 q 337 264 340 287 q 326 216 334 241 q 301 165 318 192 q 259 107 284 139 l 477 107 q 537 111 512 107 q 580 124 562 115 q 609 144 597 133 q 632 174 621 156 l 619 0 l 80 0 l 81 78 q 177 192 148 134 q 206 308 206 249 q 202 350 206 330 q 192 390 198 370 l 61 390 l 61 479 z "},"¥":{"ha":848,"x_min":6,"x_max":841,"o":"m 314 447 l 101 825 q 42 904 72 873 q 6 940 11 936 l 275 940 q 270 930 275 939 q 263 906 265 921 q 263 871 260 891 q 279 825 267 851 l 465 508 l 631 825 q 646 871 643 851 q 646 906 648 891 q 639 930 643 921 q 634 940 635 939 l 841 940 q 805 906 837 936 q 746 825 774 876 l 540 447 l 694 447 l 694 358 l 498 358 l 498 287 l 694 287 l 694 198 l 498 198 l 498 145 q 504 84 498 110 q 520 39 511 57 q 536 11 528 21 q 544 0 543 2 l 311 0 q 320 10 313 0 q 336 37 327 19 q 352 81 345 54 q 359 145 359 109 l 359 198 l 152 198 l 152 287 l 359 287 l 359 358 l 152 358 l 152 447 l 314 447 z "},"¦":{"ha":276,"x_min":85,"x_max":192,"o":"m 85 -241 l 85 308 l 192 308 l 192 -241 l 85 -241 m 192 423 l 85 423 l 85 971 l 192 971 l 192 423 z "},"§":{"ha":650,"x_min":21,"x_max":619,"o":"m 398 73 q 370 121 398 97 q 300 168 342 144 q 209 220 259 193 q 118 281 160 247 q 49 354 77 314 q 21 445 21 394 q 66 548 21 509 q 172 605 112 587 q 114 673 136 637 q 93 755 93 709 q 115 838 93 801 q 175 900 137 875 q 260 937 212 924 q 361 950 308 950 q 457 939 413 950 q 525 915 500 928 l 516 813 q 456 852 498 835 q 364 870 413 870 q 314 863 338 870 q 273 843 291 856 q 244 813 255 830 q 233 779 233 797 q 262 731 233 754 q 333 686 291 709 q 425 636 375 663 q 519 578 476 610 q 591 506 562 546 q 619 415 619 466 q 574 307 619 348 q 463 247 528 265 q 538 96 538 185 q 515 10 538 48 q 453 -52 492 -27 q 366 -90 415 -77 q 263 -104 316 -104 q 161 -92 211 -104 q 86 -67 112 -80 l 89 54 q 163 0 113 24 q 267 -24 212 -24 q 360 4 322 -24 q 398 73 398 32 m 496 383 q 473 429 496 407 q 413 471 449 450 q 334 512 377 492 q 252 554 291 533 q 212 557 231 560 q 178 543 193 554 q 154 516 163 532 q 145 481 145 500 q 169 438 145 460 q 228 394 193 417 q 306 347 263 370 q 386 302 348 324 q 429 299 409 294 q 464 316 449 303 q 488 346 479 329 q 496 383 496 364 z "},"¨":{"ha":564,"x_min":67,"x_max":492,"o":"m 67 846 q 92 913 67 888 q 152 939 117 939 q 212 913 187 939 q 236 846 236 888 q 212 781 236 805 q 152 757 187 757 q 92 781 117 757 q 67 846 67 805 m 322 846 q 347 913 322 888 q 407 939 372 939 q 467 913 442 939 q 492 846 492 888 q 467 781 492 805 q 407 757 442 757 q 347 781 372 757 q 322 846 322 805 z "},"©":{"ha":1006,"x_min":40,"x_max":969,"o":"m 40 465 q 77 672 40 581 q 178 825 115 763 q 325 920 241 888 q 503 953 409 953 q 685 920 600 953 q 833 825 769 888 q 932 672 896 763 q 969 465 969 581 q 932 268 969 356 q 833 119 896 180 q 685 24 769 57 q 503 -10 600 -10 q 325 24 409 -10 q 178 119 241 57 q 77 268 115 180 q 40 465 40 356 m 144 465 q 171 304 144 377 q 246 180 198 231 q 360 99 294 128 q 506 70 426 70 q 652 99 586 70 q 765 180 718 128 q 839 304 813 231 q 865 465 865 377 q 839 632 865 557 q 765 760 813 707 q 652 841 718 813 q 506 868 586 868 q 360 841 426 868 q 246 760 294 813 q 171 632 198 707 q 144 465 144 557 m 370 468 q 417 310 370 366 q 536 254 465 254 q 619 270 578 254 q 678 318 659 286 l 678 214 q 611 187 651 196 q 524 177 570 177 q 423 197 471 177 q 338 255 375 217 q 280 347 302 294 q 259 468 259 401 q 282 595 259 540 q 342 690 305 651 q 428 748 380 728 q 527 768 476 768 q 615 758 580 768 q 672 736 651 749 l 672 629 q 623 673 658 656 q 535 690 587 690 q 414 633 458 690 q 370 468 370 576 z "},"ª":{"ha":481,"x_min":42,"x_max":441,"o":"m 318 806 q 295 873 318 849 q 225 897 271 897 q 144 882 176 897 q 89 848 112 867 l 89 937 q 154 955 112 945 q 235 966 196 966 q 366 928 313 966 q 418 797 418 889 l 418 564 q 428 502 418 520 q 441 481 437 484 l 322 481 q 320 499 322 485 q 318 520 318 512 q 264 489 295 503 q 192 474 233 474 q 85 510 128 474 q 42 605 42 546 q 65 684 42 651 q 129 738 89 717 q 217 769 168 758 q 318 781 267 779 l 318 806 m 144 615 q 170 561 144 578 q 228 544 196 544 q 279 554 255 544 q 318 580 303 564 l 318 720 q 258 714 289 720 q 202 696 227 709 q 160 663 177 683 q 144 615 144 643 z "},"«":{"ha":832,"x_min":56,"x_max":774,"o":"m 423 702 l 423 597 l 198 426 l 423 255 l 423 150 l 56 390 l 56 463 l 423 702 m 774 702 l 774 597 l 549 426 l 774 255 l 774 150 l 407 390 l 407 463 l 774 702 z "},"¬":{"ha":725,"x_min":77,"x_max":648,"o":"m 77 495 l 648 495 l 648 195 l 543 195 l 543 390 l 77 390 l 77 495 z "},"­":{"ha":567,"x_min":77,"x_max":492,"o":"m 77 399 l 492 399 l 492 294 l 77 294 l 77 399 z "},"®":{"ha":1006,"x_min":40,"x_max":969,"o":"m 40 465 q 77 672 40 581 q 178 825 115 763 q 325 920 241 888 q 503 953 409 953 q 685 920 600 953 q 833 825 769 888 q 932 672 896 763 q 969 465 969 581 q 932 268 969 356 q 833 119 896 180 q 685 24 769 57 q 503 -10 600 -10 q 325 24 409 -10 q 178 119 241 57 q 77 268 115 180 q 40 465 40 356 m 144 465 q 171 304 144 377 q 246 180 198 231 q 360 99 294 128 q 506 70 426 70 q 652 99 586 70 q 765 180 718 128 q 839 304 813 231 q 865 465 865 377 q 839 632 865 557 q 765 760 813 707 q 652 841 718 813 q 506 868 586 868 q 360 841 426 868 q 246 760 294 813 q 171 632 198 707 q 144 465 144 557 m 429 420 l 429 273 q 434 208 429 230 q 442 184 439 187 l 314 184 q 322 206 318 185 q 327 273 327 227 l 327 672 q 322 737 327 715 q 314 761 318 758 l 457 761 q 608 720 548 761 q 669 587 669 678 q 645 489 669 533 q 580 433 621 444 l 674 254 q 705 206 691 222 q 726 184 718 190 l 570 184 q 577 205 576 190 q 557 254 578 220 l 468 420 l 429 420 m 429 686 l 429 492 l 449 492 q 500 500 479 492 q 532 524 520 509 q 549 555 544 538 q 554 587 554 572 q 534 656 554 626 q 458 686 514 686 l 429 686 z "},"°":{"ha":506,"x_min":38,"x_max":465,"o":"m 38 738 q 55 834 38 792 q 101 906 72 876 q 170 951 131 936 q 252 966 209 966 q 334 951 295 966 q 402 906 372 936 q 448 834 431 876 q 465 738 465 792 q 448 648 465 688 q 402 580 431 608 q 334 537 372 552 q 252 522 295 522 q 170 537 209 522 q 101 580 131 552 q 55 648 72 608 q 38 738 38 688 m 136 738 q 167 637 136 678 q 251 595 198 595 q 335 637 303 595 q 367 738 367 678 q 335 846 367 803 q 251 889 303 889 q 167 845 198 889 q 136 738 136 801 z "},"±":{"ha":736,"x_min":77,"x_max":683,"o":"m 433 797 l 433 546 l 683 546 l 683 441 l 433 441 l 433 190 l 327 190 l 327 441 l 77 441 l 77 546 l 327 546 l 327 797 l 433 797 m 683 105 l 683 0 l 77 0 l 77 105 l 683 105 z "},"²":{"ha":369,"x_min":35,"x_max":326,"o":"m 319 832 q 312 793 319 813 q 284 742 305 773 q 225 660 263 710 q 125 532 187 610 l 249 532 q 300 540 286 532 q 326 565 314 548 l 319 479 l 35 479 l 37 525 q 112 623 75 576 q 178 708 148 669 q 226 779 208 747 q 244 835 244 811 q 223 881 244 859 q 158 904 203 904 q 95 889 121 904 q 59 854 69 875 l 59 928 q 105 945 77 937 q 176 953 133 953 q 279 919 238 953 q 319 832 319 884 z "},"³":{"ha":370,"x_min":49,"x_max":321,"o":"m 321 608 q 275 508 321 548 q 168 469 230 469 q 95 477 123 469 q 49 495 67 485 l 49 570 q 86 535 59 549 q 150 520 113 520 q 219 546 193 520 q 244 605 244 572 q 223 666 244 639 q 139 696 201 693 l 101 696 l 101 744 l 139 744 q 223 773 201 746 q 244 833 244 800 q 223 880 244 857 q 158 902 201 902 q 94 888 121 902 q 57 852 67 873 l 57 928 q 103 945 75 937 q 176 953 131 953 q 279 918 238 953 q 321 830 321 883 q 301 769 321 803 q 235 720 281 734 q 275 700 259 714 q 301 670 291 686 q 316 638 311 655 q 321 608 321 621 z "},"´":{"ha":354,"x_min":150,"x_max":442,"o":"m 442 937 q 420 876 442 907 q 366 821 398 846 q 303 774 335 795 q 249 742 270 754 l 150 742 q 192 784 169 758 q 235 837 216 809 q 270 892 255 865 q 284 937 284 920 l 362 937 l 442 937 l 442 937 z "},"µ":{"ha":731,"x_min":67,"x_max":667,"o":"m 97 540 q 84 624 97 599 q 67 653 70 650 l 268 653 q 251 626 265 651 q 236 540 236 600 l 236 225 q 262 130 236 166 q 330 94 287 94 q 417 110 377 94 q 496 158 458 126 l 496 540 q 483 624 496 599 q 466 653 469 650 l 667 653 q 650 626 664 651 q 635 540 635 600 l 635 113 q 650 29 635 54 q 667 0 664 3 l 503 0 q 499 32 501 10 q 496 77 496 54 q 399 16 455 40 q 294 -8 343 -8 q 238 -3 262 -8 l 238 -158 q 251 -243 238 -217 q 268 -271 265 -268 l 70 -271 q 88 -244 73 -270 q 102 -158 102 -219 l 97 540 z "},"¶":{"ha":754,"x_min":35,"x_max":704,"o":"m 496 862 l 496 -233 l 415 -233 l 415 367 l 361 367 q 117 438 200 367 q 35 645 35 509 q 117 873 35 806 q 361 940 200 940 l 704 940 l 704 -233 l 623 -233 l 623 862 l 496 862 z "},"·":{"ha":294,"x_min":67,"x_max":236,"o":"m 67 479 q 92 546 67 520 q 152 572 117 572 q 212 546 187 572 q 236 479 236 520 q 212 413 236 437 q 152 390 187 390 q 92 413 117 390 q 67 479 67 437 z "},"¸":{"ha":367,"x_min":56,"x_max":327,"o":"m 219 11 q 204 -21 211 -5 q 192 -47 198 -34 q 184 -69 187 -61 q 207 -69 184 -67 q 256 -84 230 -72 q 305 -121 283 -96 q 327 -195 327 -147 q 317 -260 327 -231 q 290 -311 307 -289 q 251 -349 273 -334 q 208 -375 230 -364 q 88 -407 155 -401 l 56 -362 q 136 -340 101 -358 q 192 -298 166 -326 q 217 -223 217 -270 q 193 -167 217 -184 q 142 -147 169 -150 q 69 -150 110 -142 q 109 -70 91 -105 q 122 -42 117 -56 q 134 -14 128 -27 q 147 11 140 0 l 219 11 z "},"¹":{"ha":367,"x_min":105,"x_max":255,"o":"m 105 875 l 212 940 l 236 940 q 233 868 233 937 l 233 551 q 243 498 233 516 q 255 479 254 481 l 142 479 q 154 496 144 479 q 164 551 164 514 l 164 813 q 164 842 164 833 q 157 853 163 851 q 140 852 152 856 q 105 843 128 848 l 105 875 z "},"º":{"ha":541,"x_min":38,"x_max":503,"o":"m 38 712 q 57 819 38 771 q 107 899 75 867 q 181 948 139 931 q 271 966 223 966 q 360 948 318 966 q 434 899 402 931 q 485 819 466 867 q 503 712 503 771 q 485 611 503 656 q 434 536 466 567 q 360 488 402 504 q 271 471 318 471 q 181 488 223 471 q 107 536 139 504 q 57 611 75 567 q 38 712 38 656 m 144 712 q 178 584 144 632 q 270 536 212 536 q 362 584 327 536 q 396 712 396 632 q 362 848 396 798 q 270 897 327 897 q 178 848 212 897 q 144 712 144 798 z "},"»":{"ha":832,"x_min":56,"x_max":774,"o":"m 774 463 l 774 390 l 407 150 l 407 255 l 632 426 l 407 597 l 407 702 l 774 463 m 423 463 l 423 390 l 56 150 l 56 255 l 281 426 l 56 597 l 56 702 l 423 463 z "},"¼":{"ha":880,"x_min":30,"x_max":837,"o":"m 136 0 l 30 0 q 43 18 35 6 q 72 59 51 29 q 133 148 93 89 q 243 308 172 206 q 418 564 313 410 q 675 940 524 718 l 785 940 l 136 0 m 70 875 l 177 940 l 201 940 q 198 868 198 937 l 198 551 q 208 498 198 516 q 220 479 219 481 l 107 479 q 119 496 109 479 q 129 551 129 514 l 129 813 q 129 842 129 833 q 122 853 128 851 q 105 852 117 856 q 70 843 93 848 l 70 875 m 832 129 l 766 129 l 766 70 q 777 19 766 37 q 789 0 787 2 l 675 0 q 687 18 677 0 q 698 70 698 35 l 698 129 l 508 129 l 508 172 l 707 460 l 769 460 q 766 390 766 457 l 766 180 q 807 185 789 180 q 837 204 825 190 l 832 129 m 698 380 q 676 342 694 372 q 636 279 658 313 q 595 217 615 246 q 567 182 575 188 l 698 180 l 698 380 z "},"½":{"ha":880,"x_min":30,"x_max":835,"o":"m 136 0 l 30 0 q 43 18 35 6 q 72 59 51 29 q 133 148 93 89 q 243 308 172 206 q 418 564 313 410 q 675 940 524 718 l 785 940 l 136 0 m 829 353 q 821 314 829 334 q 793 263 814 294 q 734 181 773 231 q 634 53 696 131 l 758 53 q 809 61 795 53 q 835 86 824 69 l 829 0 l 544 0 l 546 46 q 621 144 584 97 q 687 229 658 190 q 735 300 717 268 q 754 356 754 332 q 733 402 754 380 q 667 425 712 425 q 604 410 631 425 q 568 375 578 396 l 568 449 q 614 466 586 458 q 685 474 642 474 q 788 440 747 474 q 829 353 829 405 m 70 875 l 177 940 l 201 940 q 198 868 198 937 l 198 551 q 208 498 198 516 q 220 479 219 481 l 107 479 q 119 496 109 479 q 129 551 129 514 l 129 813 q 129 842 129 833 q 122 853 128 851 q 105 852 117 856 q 70 843 93 848 l 70 875 z "},"¾":{"ha":880,"x_min":49,"x_max":837,"o":"m 168 0 l 62 0 q 75 18 67 6 q 104 59 83 29 q 164 148 125 89 q 275 308 204 206 q 450 564 345 410 q 707 940 556 718 l 817 940 l 168 0 m 832 129 l 766 129 l 766 70 q 777 19 766 37 q 789 0 787 2 l 675 0 q 687 18 677 0 q 698 70 698 35 l 698 129 l 508 129 l 508 172 l 707 460 l 769 460 q 766 390 766 457 l 766 180 q 807 185 789 180 q 837 204 825 190 l 832 129 m 698 380 q 676 342 694 372 q 636 279 658 313 q 595 217 615 246 q 567 182 575 188 l 698 180 l 698 380 m 321 608 q 275 508 321 548 q 168 469 230 469 q 95 477 123 469 q 49 495 67 485 l 49 570 q 86 535 59 549 q 150 520 113 520 q 219 546 193 520 q 244 605 244 572 q 223 666 244 639 q 139 696 201 693 l 101 696 l 101 744 l 139 744 q 223 773 201 746 q 244 833 244 800 q 223 880 244 857 q 158 902 201 902 q 94 888 121 902 q 57 852 67 873 l 57 928 q 103 945 75 937 q 176 953 131 953 q 279 918 238 953 q 321 830 321 883 q 301 769 321 803 q 235 720 281 734 q 275 700 259 714 q 301 670 291 686 q 316 638 311 655 q 321 608 321 621 z "},"¿":{"ha":597,"x_min":70,"x_max":562,"o":"m 437 356 q 404 211 437 268 q 330 109 370 153 q 255 22 289 64 q 222 -77 222 -19 q 228 -122 222 -101 q 249 -160 235 -144 q 287 -187 263 -177 q 346 -196 311 -196 q 413 -189 378 -196 q 477 -169 447 -182 q 531 -138 508 -156 q 562 -97 554 -120 l 562 -246 q 448 -283 516 -268 q 318 -297 380 -297 q 137 -235 204 -297 q 70 -67 70 -172 q 90 23 70 -16 q 139 95 110 62 q 203 156 168 128 q 267 215 238 185 q 315 279 295 244 q 335 356 335 313 l 335 401 l 437 401 l 437 356 m 487 576 q 457 510 487 535 q 386 485 428 485 q 315 510 345 485 q 286 576 286 535 q 315 642 286 618 q 386 666 345 666 q 457 642 428 666 q 487 576 487 618 z "},"À":{"ha":940,"x_min":18,"x_max":932,"o":"m 611 330 l 292 330 l 230 145 q 217 78 216 105 q 227 34 219 51 q 246 10 236 18 q 257 0 255 2 l 18 0 q 30 11 19 2 q 56 39 42 21 q 85 84 70 57 q 113 145 101 110 l 340 793 q 350 829 346 808 q 350 869 353 849 q 338 908 348 889 q 310 940 329 928 l 538 940 q 542 928 538 940 q 559 885 546 916 q 594 799 572 854 q 650 655 616 744 q 730 441 683 567 q 838 145 776 316 q 866 84 851 110 q 896 40 881 57 q 920 12 910 22 q 932 0 929 2 l 658 0 q 667 9 658 2 q 682 33 675 16 q 689 77 688 49 q 675 145 690 104 l 611 330 m 326 431 l 575 431 l 447 776 l 326 431 m 275 1224 l 354 1224 q 369 1180 354 1207 q 403 1125 383 1153 q 446 1071 423 1097 q 489 1030 469 1046 l 390 1030 q 336 1062 369 1041 q 272 1108 303 1082 q 219 1164 241 1133 q 196 1224 196 1194 l 275 1224 z "},"Á":{"ha":940,"x_min":18,"x_max":932,"o":"m 611 330 l 292 330 l 230 145 q 217 78 216 105 q 227 34 219 51 q 246 10 236 18 q 257 0 255 2 l 18 0 q 30 11 19 2 q 56 39 42 21 q 85 84 70 57 q 113 145 101 110 l 340 793 q 350 829 346 808 q 350 869 353 849 q 338 908 348 889 q 310 940 329 928 l 538 940 q 542 928 538 940 q 559 885 546 916 q 594 799 572 854 q 650 655 616 744 q 730 441 683 567 q 838 145 776 316 q 866 84 851 110 q 896 40 881 57 q 920 12 910 22 q 932 0 929 2 l 658 0 q 667 9 658 2 q 682 33 675 16 q 689 77 688 49 q 675 145 690 104 l 611 330 m 326 431 l 575 431 l 447 776 l 326 431 m 680 1224 q 658 1164 680 1194 q 604 1108 635 1133 q 540 1062 573 1082 q 487 1030 508 1041 l 388 1030 q 430 1071 407 1046 q 473 1125 453 1097 q 508 1180 493 1153 q 522 1224 522 1207 l 600 1224 l 680 1224 l 680 1224 z "},"Â":{"ha":940,"x_min":18,"x_max":932,"o":"m 611 330 l 292 330 l 230 145 q 217 78 216 105 q 227 34 219 51 q 246 10 236 18 q 257 0 255 2 l 18 0 q 30 11 19 2 q 56 39 42 21 q 85 84 70 57 q 113 145 101 110 l 340 793 q 350 829 346 808 q 350 869 353 849 q 338 908 348 889 q 310 940 329 928 l 538 940 q 542 928 538 940 q 559 885 546 916 q 594 799 572 854 q 650 655 616 744 q 730 441 683 567 q 838 145 776 316 q 866 84 851 110 q 896 40 881 57 q 920 12 910 22 q 932 0 929 2 l 658 0 q 667 9 658 2 q 682 33 675 16 q 689 77 688 49 q 675 145 690 104 l 611 330 m 326 431 l 575 431 l 447 776 l 326 431 m 468 1224 q 512 1177 484 1208 q 572 1113 540 1146 q 634 1047 603 1079 q 685 998 664 1015 l 586 998 q 528 1041 564 1014 q 453 1100 492 1068 q 379 1041 415 1068 q 321 998 343 1014 l 222 998 q 263 1038 238 1012 q 318 1096 289 1065 q 377 1161 346 1127 q 434 1224 407 1196 l 468 1224 z "},"Ã":{"ha":940,"x_min":18,"x_max":932,"o":"m 611 330 l 292 330 l 230 145 q 217 78 216 105 q 227 34 219 51 q 246 10 236 18 q 257 0 255 2 l 18 0 q 30 11 19 2 q 56 39 42 21 q 85 84 70 57 q 113 145 101 110 l 340 793 q 350 829 346 808 q 350 869 353 849 q 338 908 348 889 q 310 940 329 928 l 538 940 q 542 928 538 940 q 559 885 546 916 q 594 799 572 854 q 650 655 616 744 q 730 441 683 567 q 838 145 776 316 q 866 84 851 110 q 896 40 881 57 q 920 12 910 22 q 932 0 929 2 l 658 0 q 667 9 658 2 q 682 33 675 16 q 689 77 688 49 q 675 145 690 104 l 611 330 m 326 431 l 575 431 l 447 776 l 326 431 m 559 1014 q 500 1023 535 1014 q 442 1050 466 1031 q 402 1074 423 1065 q 361 1080 380 1082 q 326 1062 342 1078 q 307 1014 311 1047 l 235 1014 q 282 1131 241 1094 q 378 1169 322 1169 q 434 1159 402 1169 q 492 1132 466 1149 q 533 1109 511 1116 q 576 1106 556 1102 q 612 1125 597 1110 q 632 1169 627 1140 l 704 1169 q 655 1051 696 1089 q 559 1014 615 1014 z "},"Ä":{"ha":940,"x_min":18,"x_max":932,"o":"m 611 330 l 292 330 l 230 145 q 217 78 216 105 q 227 34 219 51 q 246 10 236 18 q 257 0 255 2 l 18 0 q 30 11 19 2 q 56 39 42 21 q 85 84 70 57 q 113 145 101 110 l 340 793 q 350 829 346 808 q 350 869 353 849 q 338 908 348 889 q 310 940 329 928 l 538 940 q 542 928 538 940 q 559 885 546 916 q 594 799 572 854 q 650 655 616 744 q 730 441 683 567 q 838 145 776 316 q 866 84 851 110 q 896 40 881 57 q 920 12 910 22 q 932 0 929 2 l 658 0 q 667 9 658 2 q 682 33 675 16 q 689 77 688 49 q 675 145 690 104 l 611 330 m 326 431 l 575 431 l 447 776 l 326 431 m 241 1117 q 266 1185 241 1159 q 326 1210 291 1210 q 386 1185 361 1210 q 410 1117 410 1159 q 386 1052 410 1076 q 326 1028 361 1028 q 266 1052 291 1028 q 241 1117 241 1076 m 496 1117 q 521 1185 496 1159 q 581 1210 546 1210 q 641 1185 616 1210 q 666 1117 666 1159 q 641 1052 666 1076 q 581 1028 616 1028 q 521 1052 546 1028 q 496 1117 496 1076 z "},"Å":{"ha":940,"x_min":18,"x_max":932,"o":"m 611 330 l 292 330 l 230 145 q 217 78 216 105 q 227 34 219 51 q 246 10 236 18 q 257 0 255 2 l 18 0 q 30 11 19 2 q 56 39 42 21 q 85 84 70 57 q 113 145 101 110 l 340 793 q 350 829 346 808 q 350 869 353 849 q 338 908 348 889 q 310 940 329 928 l 538 940 q 542 928 538 940 q 559 885 546 916 q 594 799 572 854 q 650 655 616 744 q 730 441 683 567 q 838 145 776 316 q 866 84 851 110 q 896 40 881 57 q 920 12 910 22 q 932 0 929 2 l 658 0 q 667 9 658 2 q 682 33 675 16 q 689 77 688 49 q 675 145 690 104 l 611 330 m 326 431 l 575 431 l 447 776 l 326 431 m 318 1114 q 353 1199 318 1164 q 437 1234 388 1234 q 522 1199 487 1234 q 557 1114 557 1164 q 522 1030 557 1065 q 437 995 487 995 q 353 1030 388 995 q 318 1114 318 1065 m 375 1114 q 394 1070 375 1089 q 437 1052 412 1052 q 481 1070 463 1052 q 500 1114 500 1089 q 481 1158 500 1140 q 437 1177 463 1177 q 394 1158 412 1177 q 375 1114 375 1140 z "},"Æ":{"ha":1154,"x_min":19,"x_max":1117,"o":"m 1108 0 l 573 0 q 582 10 575 0 q 598 37 589 19 q 614 81 607 54 q 621 145 621 109 l 621 330 l 348 330 l 254 145 q 231 78 233 105 q 234 34 228 51 q 247 10 239 18 q 257 0 255 2 l 19 0 q 34 11 22 2 q 63 39 46 21 q 99 84 80 57 q 137 145 118 110 l 474 793 q 489 829 482 808 q 497 869 496 849 q 492 908 498 889 q 468 940 485 928 l 1110 940 l 1117 773 q 1068 817 1102 801 q 963 833 1034 833 l 760 833 l 760 535 l 966 535 q 1015 542 995 535 q 1050 557 1036 549 q 1073 573 1065 565 q 1082 583 1081 581 l 1082 388 q 1074 397 1081 390 q 1052 412 1066 404 q 1016 427 1038 420 q 966 434 995 434 l 760 434 l 760 107 l 963 107 q 1023 111 998 107 q 1065 124 1047 115 q 1094 144 1082 133 q 1117 174 1106 156 l 1108 0 m 398 431 l 621 431 l 621 833 l 608 833 l 398 431 z "},"Ç":{"ha":801,"x_min":34,"x_max":765,"o":"m 201 465 q 227 312 201 382 q 298 193 254 243 q 399 116 342 144 q 517 88 457 88 q 589 95 552 88 q 659 115 626 102 q 720 148 693 128 q 765 195 747 168 l 765 49 q 647 6 718 21 q 493 -10 575 -10 q 321 24 404 -10 q 174 119 238 57 q 72 268 110 180 q 34 465 34 356 q 73 672 34 581 q 179 825 113 763 q 328 920 244 888 q 498 953 412 953 q 655 937 592 953 q 755 902 718 921 l 755 754 q 667 826 728 800 q 514 852 607 852 q 392 825 449 852 q 293 746 335 797 q 226 624 251 696 q 201 465 201 552 m 508 11 q 493 -21 500 -5 q 481 -47 487 -34 q 473 -69 476 -61 q 496 -69 473 -67 q 545 -84 519 -72 q 594 -121 572 -96 q 616 -195 616 -147 q 606 -260 616 -231 q 579 -311 595 -289 q 540 -349 562 -334 q 496 -375 519 -364 q 377 -407 444 -401 l 345 -362 q 425 -340 390 -358 q 481 -298 455 -326 q 506 -223 506 -270 q 482 -167 506 -184 q 431 -147 458 -150 q 358 -150 399 -142 q 398 -70 380 -105 q 411 -42 405 -56 q 423 -14 417 -27 q 436 11 429 0 l 508 11 z "},"È":{"ha":634,"x_min":51,"x_max":595,"o":"m 586 0 l 51 0 q 60 10 53 0 q 76 37 67 19 q 92 81 85 54 q 99 145 99 109 l 99 795 q 92 859 99 832 q 76 904 85 886 q 60 931 67 921 q 51 940 53 940 l 587 940 l 595 773 q 546 817 580 801 q 441 833 512 833 l 238 833 l 238 535 l 444 535 q 493 542 473 535 q 528 557 514 549 q 551 573 543 565 q 560 583 559 581 l 560 388 q 552 397 559 390 q 530 412 544 404 q 494 427 516 420 q 444 434 473 434 l 238 434 l 238 107 l 441 107 q 500 111 476 107 q 543 124 525 115 q 572 144 560 133 q 595 174 584 156 l 586 0 m 217 1224 l 297 1224 q 311 1180 297 1207 q 346 1125 326 1153 q 389 1071 366 1097 q 431 1030 412 1046 l 332 1030 q 279 1062 311 1041 q 215 1108 246 1082 q 161 1164 184 1133 q 139 1224 139 1194 l 217 1224 z "},"É":{"ha":634,"x_min":51,"x_max":595,"o":"m 586 0 l 51 0 q 60 10 53 0 q 76 37 67 19 q 92 81 85 54 q 99 145 99 109 l 99 795 q 92 859 99 832 q 76 904 85 886 q 60 931 67 921 q 51 940 53 940 l 587 940 l 595 773 q 546 817 580 801 q 441 833 512 833 l 238 833 l 238 535 l 444 535 q 493 542 473 535 q 528 557 514 549 q 551 573 543 565 q 560 583 559 581 l 560 388 q 552 397 559 390 q 530 412 544 404 q 494 427 516 420 q 444 434 473 434 l 238 434 l 238 107 l 441 107 q 500 111 476 107 q 543 124 525 115 q 572 144 560 133 q 595 174 584 156 l 586 0 m 543 1224 q 520 1164 543 1194 q 467 1108 498 1133 q 403 1062 436 1082 q 350 1030 370 1041 l 251 1030 q 293 1071 270 1046 q 336 1125 316 1097 q 370 1180 356 1153 q 385 1224 385 1207 l 463 1224 l 543 1224 l 543 1224 z "},"Ê":{"ha":634,"x_min":51,"x_max":595,"o":"m 586 0 l 51 0 q 60 10 53 0 q 76 37 67 19 q 92 81 85 54 q 99 145 99 109 l 99 795 q 92 859 99 832 q 76 904 85 886 q 60 931 67 921 q 51 940 53 940 l 587 940 l 595 773 q 546 817 580 801 q 441 833 512 833 l 238 833 l 238 535 l 444 535 q 493 542 473 535 q 528 557 514 549 q 551 573 543 565 q 560 583 559 581 l 560 388 q 552 397 559 390 q 530 412 544 404 q 494 427 516 420 q 444 434 473 434 l 238 434 l 238 107 l 441 107 q 500 111 476 107 q 543 124 525 115 q 572 144 560 133 q 595 174 584 156 l 586 0 m 330 1240 q 374 1193 346 1224 q 434 1129 402 1162 q 496 1063 466 1095 q 548 1014 527 1031 l 449 1014 q 390 1057 426 1030 q 316 1116 354 1084 q 242 1057 278 1084 q 184 1014 206 1030 l 85 1014 q 126 1054 101 1028 q 180 1112 152 1081 q 239 1177 209 1143 q 297 1240 270 1212 l 330 1240 z "},"Ë":{"ha":634,"x_min":51,"x_max":595,"o":"m 586 0 l 51 0 q 60 10 53 0 q 76 37 67 19 q 92 81 85 54 q 99 145 99 109 l 99 795 q 92 859 99 832 q 76 904 85 886 q 60 931 67 921 q 51 940 53 940 l 587 940 l 595 773 q 546 817 580 801 q 441 833 512 833 l 238 833 l 238 535 l 444 535 q 493 542 473 535 q 528 557 514 549 q 551 573 543 565 q 560 583 559 581 l 560 388 q 552 397 559 390 q 530 412 544 404 q 494 427 516 420 q 444 434 473 434 l 238 434 l 238 107 l 441 107 q 500 111 476 107 q 543 124 525 115 q 572 144 560 133 q 595 174 584 156 l 586 0 m 120 1117 q 144 1185 120 1159 q 204 1210 169 1210 q 264 1185 239 1210 q 289 1117 289 1159 q 264 1052 289 1076 q 204 1028 239 1028 q 144 1052 169 1028 q 120 1117 120 1076 m 375 1117 q 400 1185 375 1159 q 460 1210 425 1210 q 520 1185 495 1210 q 544 1117 544 1159 q 520 1052 544 1076 q 460 1028 495 1028 q 400 1052 425 1028 q 375 1117 375 1076 z "},"Ì":{"ha":327,"x_min":-62,"x_max":284,"o":"m 238 145 q 244 84 238 110 q 259 39 251 57 q 275 11 268 21 q 284 0 283 2 l 51 0 q 60 10 53 0 q 76 37 67 19 q 92 81 85 54 q 99 145 99 109 l 99 795 q 92 856 99 830 q 77 901 85 883 q 61 929 69 920 q 51 940 53 939 l 284 940 q 275 929 283 939 q 259 902 268 920 q 244 857 251 884 q 238 795 238 830 l 238 145 m 16 1208 l 96 1208 q 110 1164 96 1191 q 144 1109 125 1137 q 188 1055 164 1081 q 230 1014 211 1030 l 131 1014 q 77 1046 110 1025 q 14 1092 45 1066 q -40 1148 -18 1117 q -62 1208 -62 1178 l 16 1208 z "},"Í":{"ha":327,"x_min":51,"x_max":386,"o":"m 238 145 q 244 84 238 110 q 259 39 251 57 q 275 11 268 21 q 284 0 283 2 l 51 0 q 60 10 53 0 q 76 37 67 19 q 92 81 85 54 q 99 145 99 109 l 99 795 q 92 856 99 830 q 77 901 85 883 q 61 929 69 920 q 51 940 53 939 l 284 940 q 275 929 283 939 q 259 902 268 920 q 244 857 251 884 q 238 795 238 830 l 238 145 m 386 1208 q 364 1148 386 1178 q 311 1092 342 1117 q 247 1046 279 1066 q 193 1014 214 1025 l 94 1014 q 136 1055 113 1030 q 180 1109 160 1081 q 214 1164 200 1137 q 228 1208 228 1191 l 307 1208 l 386 1208 l 386 1208 z "},"Î":{"ha":327,"x_min":-67,"x_max":396,"o":"m 238 145 q 244 84 238 110 q 259 39 251 57 q 275 11 268 21 q 284 0 283 2 l 51 0 q 60 10 53 0 q 76 37 67 19 q 92 81 85 54 q 99 145 99 109 l 99 795 q 92 856 99 830 q 77 901 85 883 q 61 929 69 920 q 51 940 53 939 l 284 940 q 275 929 283 939 q 259 902 268 920 q 244 857 251 884 q 238 795 238 830 l 238 145 m 179 1240 q 223 1193 195 1224 q 283 1129 251 1162 q 345 1063 314 1095 q 396 1014 375 1031 l 297 1014 q 239 1057 275 1030 q 164 1116 203 1084 q 90 1057 126 1084 q 32 1014 54 1030 l -67 1014 q -26 1054 -51 1028 q 29 1112 0 1081 q 88 1177 57 1143 q 145 1240 118 1212 l 179 1240 z "},"Ï":{"ha":327,"x_min":-48,"x_max":377,"o":"m 238 145 q 244 84 238 110 q 259 39 251 57 q 275 11 268 21 q 284 0 283 2 l 51 0 q 60 10 53 0 q 76 37 67 19 q 92 81 85 54 q 99 145 99 109 l 99 795 q 92 856 99 830 q 77 901 85 883 q 61 929 69 920 q 51 940 53 939 l 284 940 q 275 929 283 939 q 259 902 268 920 q 244 857 251 884 q 238 795 238 830 l 238 145 m -48 1117 q -23 1185 -48 1159 q 37 1210 2 1210 q 97 1185 72 1210 q 121 1117 121 1159 q 97 1052 121 1076 q 37 1028 72 1028 q -23 1052 2 1028 q -48 1117 -48 1076 m 208 1117 q 232 1185 208 1159 q 292 1210 257 1210 q 352 1185 327 1210 q 377 1117 377 1159 q 352 1052 377 1076 q 292 1028 327 1028 q 232 1052 257 1028 q 208 1117 208 1076 z "},"Ð":{"ha":905,"x_min":30,"x_max":873,"o":"m 30 528 l 148 528 l 148 795 q 141 856 148 830 q 126 901 134 883 q 110 929 118 920 q 101 940 102 939 l 429 940 q 603 909 522 940 q 743 818 683 878 q 838 670 803 758 q 873 465 873 581 q 838 270 873 356 q 743 124 803 184 q 603 32 683 64 q 429 0 522 0 l 101 0 q 109 10 102 0 q 125 37 117 19 q 141 81 134 54 q 148 145 148 109 l 148 423 l 30 423 l 30 528 m 287 833 l 287 528 l 445 528 l 445 423 l 287 423 l 287 102 l 431 102 q 546 128 493 102 q 635 200 599 153 q 693 314 672 247 q 714 465 714 382 q 635 738 714 642 q 431 833 557 833 l 287 833 z "},"Ñ":{"ha":883,"x_min":46,"x_max":843,"o":"m 795 0 l 717 0 q 682 47 717 0 q 592 166 647 94 q 474 323 538 238 q 354 485 410 409 q 256 616 297 560 q 209 686 216 672 l 209 145 q 216 84 209 110 q 231 39 222 57 q 247 11 239 21 q 255 0 254 2 l 46 0 q 55 10 48 0 q 71 37 62 19 q 87 81 80 54 q 94 145 94 109 l 94 795 q 87 856 94 830 q 72 901 80 883 q 56 929 64 920 q 46 940 48 939 l 190 940 q 222 896 188 939 q 306 788 255 854 q 417 643 356 722 q 534 490 479 564 q 630 359 589 417 q 683 278 670 302 l 683 795 q 676 856 683 830 q 661 901 669 883 q 645 929 653 920 q 635 940 637 939 l 843 940 q 834 929 841 939 q 818 902 827 920 q 803 857 809 884 q 797 795 797 830 l 795 0 m 530 1014 q 472 1023 506 1014 q 413 1050 437 1031 q 373 1074 394 1065 q 332 1080 351 1082 q 298 1062 313 1078 q 278 1014 283 1047 l 206 1014 q 253 1131 212 1094 q 350 1169 294 1169 q 405 1159 374 1169 q 463 1132 437 1149 q 504 1109 482 1116 q 548 1106 527 1102 q 583 1125 568 1110 q 603 1169 599 1140 l 675 1169 q 627 1051 667 1089 q 530 1014 586 1014 z "},"Ò":{"ha":955,"x_min":34,"x_max":920,"o":"m 34 465 q 69 672 34 581 q 166 825 105 763 q 307 920 227 888 q 476 953 386 953 q 649 920 568 953 q 789 825 730 888 q 884 672 849 763 q 920 465 920 581 q 884 268 920 356 q 789 119 849 180 q 649 24 730 57 q 476 -10 568 -10 q 307 24 386 -10 q 166 119 227 57 q 69 268 105 180 q 34 465 34 356 m 193 465 q 214 313 193 382 q 273 196 235 244 q 363 120 311 147 q 477 93 415 93 q 592 120 540 93 q 682 196 645 147 q 739 313 718 244 q 760 465 760 382 q 739 623 760 552 q 682 744 718 694 q 592 820 645 793 q 477 846 540 846 q 363 820 415 846 q 273 744 311 793 q 214 623 235 694 q 193 465 193 552 m 313 1208 l 393 1208 q 407 1164 393 1191 q 441 1109 421 1137 q 485 1055 461 1081 q 527 1014 508 1030 l 428 1014 q 374 1046 407 1025 q 311 1092 342 1066 q 257 1148 279 1117 q 235 1208 235 1178 l 313 1208 z "},"Ó":{"ha":955,"x_min":34,"x_max":920,"o":"m 34 465 q 69 672 34 581 q 166 825 105 763 q 307 920 227 888 q 476 953 386 953 q 649 920 568 953 q 789 825 730 888 q 884 672 849 763 q 920 465 920 581 q 884 268 920 356 q 789 119 849 180 q 649 24 730 57 q 476 -10 568 -10 q 307 24 386 -10 q 166 119 227 57 q 69 268 105 180 q 34 465 34 356 m 193 465 q 214 313 193 382 q 273 196 235 244 q 363 120 311 147 q 477 93 415 93 q 592 120 540 93 q 682 196 645 147 q 739 313 718 244 q 760 465 760 382 q 739 623 760 552 q 682 744 718 694 q 592 820 645 793 q 477 846 540 846 q 363 820 415 846 q 273 744 311 793 q 214 623 235 694 q 193 465 193 552 m 702 1208 q 680 1148 702 1178 q 627 1092 658 1117 q 563 1046 595 1066 q 509 1014 530 1025 l 410 1014 q 453 1055 429 1030 q 496 1109 476 1081 q 530 1164 516 1137 q 544 1208 544 1191 l 623 1208 l 702 1208 l 702 1208 z "},"Ô":{"ha":955,"x_min":34,"x_max":920,"o":"m 34 465 q 69 672 34 581 q 166 825 105 763 q 307 920 227 888 q 476 953 386 953 q 649 920 568 953 q 789 825 730 888 q 884 672 849 763 q 920 465 920 581 q 884 268 920 356 q 789 119 849 180 q 649 24 730 57 q 476 -10 568 -10 q 307 24 386 -10 q 166 119 227 57 q 69 268 105 180 q 34 465 34 356 m 193 465 q 214 313 193 382 q 273 196 235 244 q 363 120 311 147 q 477 93 415 93 q 592 120 540 93 q 682 196 645 147 q 739 313 718 244 q 760 465 760 382 q 739 623 760 552 q 682 744 718 694 q 592 820 645 793 q 477 846 540 846 q 363 820 415 846 q 273 744 311 793 q 214 623 235 694 q 193 465 193 552 m 492 1224 q 536 1177 508 1208 q 595 1113 564 1146 q 658 1047 627 1079 q 709 998 688 1015 l 610 998 q 552 1041 587 1014 q 477 1100 516 1068 q 403 1041 439 1068 q 345 998 367 1014 l 246 998 q 287 1038 262 1012 q 342 1096 313 1065 q 401 1161 370 1127 q 458 1224 431 1196 l 492 1224 z "},"Õ":{"ha":955,"x_min":34,"x_max":920,"o":"m 34 465 q 69 672 34 581 q 166 825 105 763 q 307 920 227 888 q 476 953 386 953 q 649 920 568 953 q 789 825 730 888 q 884 672 849 763 q 920 465 920 581 q 884 268 920 356 q 789 119 849 180 q 649 24 730 57 q 476 -10 568 -10 q 307 24 386 -10 q 166 119 227 57 q 69 268 105 180 q 34 465 34 356 m 193 465 q 214 313 193 382 q 273 196 235 244 q 363 120 311 147 q 477 93 415 93 q 592 120 540 93 q 682 196 645 147 q 739 313 718 244 q 760 465 760 382 q 739 623 760 552 q 682 744 718 694 q 592 820 645 793 q 477 846 540 846 q 363 820 415 846 q 273 744 311 793 q 214 623 235 694 q 193 465 193 552 m 567 1014 q 508 1023 543 1014 q 450 1050 474 1031 q 409 1074 431 1065 q 369 1080 388 1082 q 334 1062 350 1078 q 314 1014 319 1047 l 243 1014 q 290 1131 249 1094 q 386 1169 330 1169 q 442 1159 410 1169 q 500 1132 474 1149 q 541 1109 519 1116 q 584 1106 564 1102 q 620 1125 605 1110 q 640 1169 635 1140 l 712 1169 q 663 1051 704 1089 q 567 1014 623 1014 z "},"Ö":{"ha":955,"x_min":34,"x_max":920,"o":"m 34 465 q 69 672 34 581 q 166 825 105 763 q 307 920 227 888 q 476 953 386 953 q 649 920 568 953 q 789 825 730 888 q 884 672 849 763 q 920 465 920 581 q 884 268 920 356 q 789 119 849 180 q 649 24 730 57 q 476 -10 568 -10 q 307 24 386 -10 q 166 119 227 57 q 69 268 105 180 q 34 465 34 356 m 193 465 q 214 313 193 382 q 273 196 235 244 q 363 120 311 147 q 477 93 415 93 q 592 120 540 93 q 682 196 645 147 q 739 313 718 244 q 760 465 760 382 q 739 623 760 552 q 682 744 718 694 q 592 820 645 793 q 477 846 540 846 q 363 820 415 846 q 273 744 311 793 q 214 623 235 694 q 193 465 193 552 m 265 1117 q 290 1185 265 1159 q 350 1210 314 1210 q 409 1185 385 1210 q 434 1117 434 1159 q 409 1052 434 1076 q 350 1028 385 1028 q 290 1052 314 1028 q 265 1117 265 1076 m 520 1117 q 545 1185 520 1159 q 605 1210 570 1210 q 665 1185 640 1210 q 690 1117 690 1159 q 665 1052 690 1076 q 605 1028 640 1028 q 545 1052 570 1028 q 520 1117 520 1076 z "},"×":{"ha":736,"x_min":128,"x_max":632,"o":"m 632 603 l 455 426 l 632 249 l 557 174 l 380 351 l 203 174 l 128 249 l 305 426 l 128 603 l 203 678 l 380 501 l 557 678 l 632 603 z "},"Ø":{"ha":955,"x_min":34,"x_max":920,"o":"m 37 0 l 813 955 l 920 955 l 144 0 l 37 0 m 34 465 q 69 672 34 581 q 166 825 105 763 q 307 920 227 888 q 476 953 386 953 q 649 920 568 953 q 789 825 730 888 q 884 672 849 763 q 920 465 920 581 q 884 268 920 356 q 789 119 849 180 q 649 24 730 57 q 476 -10 568 -10 q 307 24 386 -10 q 166 119 227 57 q 69 268 105 180 q 34 465 34 356 m 193 465 q 214 313 193 382 q 273 196 235 244 q 363 120 311 147 q 477 93 415 93 q 592 120 540 93 q 682 196 645 147 q 739 313 718 244 q 760 465 760 382 q 739 623 760 552 q 682 744 718 694 q 592 820 645 793 q 477 846 540 846 q 363 820 415 846 q 273 744 311 793 q 214 623 235 694 q 193 465 193 552 z "},"Ù":{"ha":880,"x_min":51,"x_max":835,"o":"m 238 313 q 286 152 238 212 q 431 93 334 93 q 487 98 457 93 q 548 114 517 104 q 604 138 578 125 q 650 169 631 152 l 650 795 q 643 856 650 830 q 627 901 635 883 q 611 929 619 920 q 602 940 603 939 l 835 940 q 826 929 833 939 q 810 902 819 920 q 795 857 801 884 q 789 795 789 830 l 789 145 q 795 84 789 110 q 810 39 801 57 q 826 11 819 21 q 835 0 833 2 l 658 0 q 657 17 659 0 q 651 73 655 34 q 596 39 629 54 q 528 14 564 24 q 456 -3 492 3 q 394 -10 420 -10 q 254 14 310 -10 q 163 81 198 38 q 113 181 128 123 q 99 308 99 239 l 99 795 q 92 856 99 830 q 77 901 85 883 q 61 929 69 920 q 51 940 53 939 l 284 940 q 275 929 283 939 q 259 902 268 920 q 244 857 251 884 q 238 795 238 830 l 238 313 m 324 1208 l 404 1208 q 418 1164 404 1191 q 453 1109 433 1137 q 496 1055 473 1081 q 538 1014 519 1030 l 439 1014 q 386 1046 418 1025 q 322 1092 353 1066 q 268 1148 291 1117 q 246 1208 246 1178 l 324 1208 z "},"Ú":{"ha":880,"x_min":51,"x_max":835,"o":"m 238 313 q 286 152 238 212 q 431 93 334 93 q 487 98 457 93 q 548 114 517 104 q 604 138 578 125 q 650 169 631 152 l 650 795 q 643 856 650 830 q 627 901 635 883 q 611 929 619 920 q 602 940 603 939 l 835 940 q 826 929 833 939 q 810 902 819 920 q 795 857 801 884 q 789 795 789 830 l 789 145 q 795 84 789 110 q 810 39 801 57 q 826 11 819 21 q 835 0 833 2 l 658 0 q 657 17 659 0 q 651 73 655 34 q 596 39 629 54 q 528 14 564 24 q 456 -3 492 3 q 394 -10 420 -10 q 254 14 310 -10 q 163 81 198 38 q 113 181 128 123 q 99 308 99 239 l 99 795 q 92 856 99 830 q 77 901 85 883 q 61 929 69 920 q 51 940 53 939 l 284 940 q 275 929 283 939 q 259 902 268 920 q 244 857 251 884 q 238 795 238 830 l 238 313 m 666 1208 q 643 1148 666 1178 q 590 1092 621 1117 q 526 1046 559 1066 q 473 1014 493 1025 l 374 1014 q 416 1055 393 1030 q 459 1109 439 1081 q 493 1164 479 1137 q 508 1208 508 1191 l 586 1208 l 666 1208 l 666 1208 z "},"Û":{"ha":880,"x_min":51,"x_max":835,"o":"m 238 313 q 286 152 238 212 q 431 93 334 93 q 487 98 457 93 q 548 114 517 104 q 604 138 578 125 q 650 169 631 152 l 650 795 q 643 856 650 830 q 627 901 635 883 q 611 929 619 920 q 602 940 603 939 l 835 940 q 826 929 833 939 q 810 902 819 920 q 795 857 801 884 q 789 795 789 830 l 789 145 q 795 84 789 110 q 810 39 801 57 q 826 11 819 21 q 835 0 833 2 l 658 0 q 657 17 659 0 q 651 73 655 34 q 596 39 629 54 q 528 14 564 24 q 456 -3 492 3 q 394 -10 420 -10 q 254 14 310 -10 q 163 81 198 38 q 113 181 128 123 q 99 308 99 239 l 99 795 q 92 856 99 830 q 77 901 85 883 q 61 929 69 920 q 51 940 53 939 l 284 940 q 275 929 283 939 q 259 902 268 920 q 244 857 251 884 q 238 795 238 830 l 238 313 m 453 1240 q 497 1193 469 1224 q 557 1129 525 1162 q 619 1063 589 1095 q 670 1014 650 1031 l 572 1014 q 513 1057 549 1030 q 439 1116 477 1084 q 365 1057 401 1084 q 307 1014 329 1030 l 208 1014 q 249 1054 223 1028 q 303 1112 275 1081 q 362 1177 332 1143 q 420 1240 393 1212 l 453 1240 z "},"Ü":{"ha":880,"x_min":51,"x_max":835,"o":"m 238 313 q 286 152 238 212 q 431 93 334 93 q 487 98 457 93 q 548 114 517 104 q 604 138 578 125 q 650 169 631 152 l 650 795 q 643 856 650 830 q 627 901 635 883 q 611 929 619 920 q 602 940 603 939 l 835 940 q 826 929 833 939 q 810 902 819 920 q 795 857 801 884 q 789 795 789 830 l 789 145 q 795 84 789 110 q 810 39 801 57 q 826 11 819 21 q 835 0 833 2 l 658 0 q 657 17 659 0 q 651 73 655 34 q 596 39 629 54 q 528 14 564 24 q 456 -3 492 3 q 394 -10 420 -10 q 254 14 310 -10 q 163 81 198 38 q 113 181 128 123 q 99 308 99 239 l 99 795 q 92 856 99 830 q 77 901 85 883 q 61 929 69 920 q 51 940 53 939 l 284 940 q 275 929 283 939 q 259 902 268 920 q 244 857 251 884 q 238 795 238 830 l 238 313 m 227 1117 q 251 1185 227 1159 q 311 1210 276 1210 q 371 1185 346 1210 q 396 1117 396 1159 q 371 1052 396 1076 q 311 1028 346 1028 q 251 1052 276 1028 q 227 1117 227 1076 m 482 1117 q 507 1185 482 1159 q 567 1210 532 1210 q 627 1185 602 1210 q 651 1117 651 1159 q 627 1052 651 1076 q 567 1028 602 1028 q 507 1052 532 1028 q 482 1117 482 1076 z "},"Ý":{"ha":848,"x_min":6,"x_max":841,"o":"m 498 370 l 498 145 q 504 84 498 110 q 520 39 511 57 q 536 11 528 21 q 544 0 543 2 l 311 0 q 320 10 313 0 q 336 37 327 19 q 352 81 345 54 q 359 145 359 109 l 359 370 l 101 825 q 42 904 72 873 q 6 940 11 936 l 275 940 q 270 930 275 939 q 263 906 265 921 q 263 871 260 891 q 279 825 267 851 l 465 508 l 631 825 q 646 871 643 851 q 646 906 648 891 q 639 930 643 921 q 634 940 635 939 l 841 940 q 805 906 837 936 q 746 825 774 876 l 498 370 m 647 1193 q 624 1132 647 1162 q 571 1076 602 1102 q 507 1030 540 1050 q 453 998 474 1009 l 354 998 q 397 1039 374 1014 q 440 1093 420 1065 q 474 1148 460 1121 q 489 1193 489 1175 l 567 1193 l 647 1193 l 647 1193 z "},"Þ":{"ha":698,"x_min":51,"x_max":666,"o":"m 302 940 q 255 878 273 918 q 238 798 238 838 l 238 781 l 292 781 q 441 765 372 781 q 560 714 509 749 q 638 622 610 678 q 666 485 666 565 q 638 366 666 418 q 560 279 610 314 q 441 226 509 244 q 292 208 372 208 l 238 208 l 238 145 q 244 84 238 110 q 259 39 251 57 q 275 11 268 21 q 284 0 283 2 l 51 0 q 60 10 53 0 q 76 37 67 19 q 92 81 85 54 q 99 145 99 109 l 99 795 q 92 856 99 830 q 77 901 85 883 q 61 929 69 920 q 51 940 53 939 l 302 940 m 238 674 l 238 310 l 294 310 q 451 356 396 310 q 506 485 506 402 q 451 632 506 591 q 294 674 396 674 l 238 674 z "},"ß":{"ha":824,"x_min":29,"x_max":795,"o":"m 656 168 q 635 212 656 192 q 584 254 615 233 q 518 297 554 275 q 452 348 482 319 q 401 413 421 377 q 380 500 380 450 q 402 593 380 554 q 449 663 423 632 q 498 722 476 694 q 520 784 520 750 q 493 856 520 825 q 409 886 466 886 q 305 841 340 886 q 270 722 270 797 l 270 113 q 283 29 270 54 q 300 0 297 3 l 99 0 q 117 27 102 2 q 131 113 131 53 l 131 564 l 29 564 l 29 653 l 131 653 l 131 725 q 150 828 131 781 q 203 909 169 875 q 283 963 236 943 q 388 982 330 982 q 512 964 461 982 q 596 919 564 947 q 644 856 629 891 q 659 787 659 822 q 637 698 659 734 q 588 632 615 661 q 540 579 562 603 q 519 524 519 554 q 540 477 519 498 q 591 437 560 457 q 657 395 621 417 q 723 345 693 374 q 774 279 754 316 q 795 190 795 241 q 777 105 795 142 q 727 43 758 69 q 655 4 696 18 q 570 -10 615 -10 q 467 2 517 -10 q 390 27 417 14 l 382 164 q 461 110 409 134 q 567 86 512 86 q 630 106 603 86 q 656 168 656 126 z "},"à":{"ha":642,"x_min":42,"x_max":586,"o":"m 417 444 q 385 536 417 503 q 291 568 353 568 q 180 548 223 568 q 105 500 137 527 l 105 623 q 144 635 121 629 q 195 648 168 642 q 250 659 222 655 q 305 663 278 663 q 403 651 358 663 q 483 611 449 639 q 536 539 517 583 q 556 431 556 495 l 556 113 q 569 29 556 54 q 586 0 583 3 l 425 0 q 421 24 423 6 q 418 54 418 42 q 345 10 388 29 q 246 -8 302 -8 q 165 5 203 -8 q 101 41 128 18 q 57 97 73 64 q 42 169 42 129 q 74 278 42 233 q 160 351 107 322 q 279 394 212 380 q 417 410 346 407 l 417 444 m 180 184 q 216 109 180 133 q 295 86 251 86 q 366 100 334 86 q 417 134 398 113 l 417 327 q 336 319 378 327 q 259 294 294 311 q 203 249 225 276 q 180 184 180 222 m 156 937 l 236 937 q 251 892 236 920 q 285 837 265 865 q 328 784 305 809 q 370 742 351 758 l 271 742 q 218 774 251 754 q 154 821 185 795 q 101 876 123 846 q 78 937 78 907 l 156 937 z "},"á":{"ha":642,"x_min":42,"x_max":586,"o":"m 417 444 q 385 536 417 503 q 291 568 353 568 q 180 548 223 568 q 105 500 137 527 l 105 623 q 144 635 121 629 q 195 648 168 642 q 250 659 222 655 q 305 663 278 663 q 403 651 358 663 q 483 611 449 639 q 536 539 517 583 q 556 431 556 495 l 556 113 q 569 29 556 54 q 586 0 583 3 l 425 0 q 421 24 423 6 q 418 54 418 42 q 345 10 388 29 q 246 -8 302 -8 q 165 5 203 -8 q 101 41 128 18 q 57 97 73 64 q 42 169 42 129 q 74 278 42 233 q 160 351 107 322 q 279 394 212 380 q 417 410 346 407 l 417 444 m 180 184 q 216 109 180 133 q 295 86 251 86 q 366 100 334 86 q 417 134 398 113 l 417 327 q 336 319 378 327 q 259 294 294 311 q 203 249 225 276 q 180 184 180 222 m 498 937 q 476 876 498 907 q 422 821 453 846 q 358 774 391 795 q 305 742 326 754 l 206 742 q 248 784 225 758 q 291 837 271 809 q 326 892 311 865 q 340 937 340 920 l 418 937 l 498 937 l 498 937 z "},"â":{"ha":642,"x_min":42,"x_max":586,"o":"m 417 444 q 385 536 417 503 q 291 568 353 568 q 180 548 223 568 q 105 500 137 527 l 105 623 q 144 635 121 629 q 195 648 168 642 q 250 659 222 655 q 305 663 278 663 q 403 651 358 663 q 483 611 449 639 q 536 539 517 583 q 556 431 556 495 l 556 113 q 569 29 556 54 q 586 0 583 3 l 425 0 q 421 24 423 6 q 418 54 418 42 q 345 10 388 29 q 246 -8 302 -8 q 165 5 203 -8 q 101 41 128 18 q 57 97 73 64 q 42 169 42 129 q 74 278 42 233 q 160 351 107 322 q 279 394 212 380 q 417 410 346 407 l 417 444 m 180 184 q 216 109 180 133 q 295 86 251 86 q 366 100 334 86 q 417 134 398 113 l 417 327 q 336 319 378 327 q 259 294 294 311 q 203 249 225 276 q 180 184 180 222 m 319 969 q 363 922 335 953 q 423 857 391 891 q 485 792 455 824 q 536 742 516 760 l 437 742 q 379 785 415 758 q 305 845 343 813 q 231 785 267 813 q 172 742 195 758 l 73 742 q 115 783 89 757 q 169 841 140 809 q 228 906 198 872 q 286 969 259 940 l 319 969 z "},"ã":{"ha":642,"x_min":42,"x_max":586,"o":"m 417 444 q 385 536 417 503 q 291 568 353 568 q 180 548 223 568 q 105 500 137 527 l 105 623 q 144 635 121 629 q 195 648 168 642 q 250 659 222 655 q 305 663 278 663 q 403 651 358 663 q 483 611 449 639 q 536 539 517 583 q 556 431 556 495 l 556 113 q 569 29 556 54 q 586 0 583 3 l 425 0 q 421 24 423 6 q 418 54 418 42 q 345 10 388 29 q 246 -8 302 -8 q 165 5 203 -8 q 101 41 128 18 q 57 97 73 64 q 42 169 42 129 q 74 278 42 233 q 160 351 107 322 q 279 394 212 380 q 417 410 346 407 l 417 444 m 180 184 q 216 109 180 133 q 295 86 251 86 q 366 100 334 86 q 417 134 398 113 l 417 327 q 336 319 378 327 q 259 294 294 311 q 203 249 225 276 q 180 184 180 222 m 410 758 q 352 767 386 758 q 294 795 318 776 q 253 818 275 809 q 212 825 231 827 q 178 807 193 822 q 158 758 163 792 l 86 758 q 133 876 93 838 q 230 913 174 913 q 286 904 254 913 q 343 876 318 894 q 385 853 362 860 q 428 850 407 846 q 464 869 449 854 q 484 913 479 884 l 556 913 q 507 796 548 833 q 410 758 466 758 z "},"ä":{"ha":642,"x_min":42,"x_max":586,"o":"m 417 444 q 385 536 417 503 q 291 568 353 568 q 180 548 223 568 q 105 500 137 527 l 105 623 q 144 635 121 629 q 195 648 168 642 q 250 659 222 655 q 305 663 278 663 q 403 651 358 663 q 483 611 449 639 q 536 539 517 583 q 556 431 556 495 l 556 113 q 569 29 556 54 q 586 0 583 3 l 425 0 q 421 24 423 6 q 418 54 418 42 q 345 10 388 29 q 246 -8 302 -8 q 165 5 203 -8 q 101 41 128 18 q 57 97 73 64 q 42 169 42 129 q 74 278 42 233 q 160 351 107 322 q 279 394 212 380 q 417 410 346 407 l 417 444 m 180 184 q 216 109 180 133 q 295 86 251 86 q 366 100 334 86 q 417 134 398 113 l 417 327 q 336 319 378 327 q 259 294 294 311 q 203 249 225 276 q 180 184 180 222 m 109 846 q 133 913 109 888 q 193 939 158 939 q 253 913 228 939 q 278 846 278 888 q 253 781 278 805 q 193 757 228 757 q 133 781 158 757 q 109 846 109 805 m 364 846 q 389 913 364 888 q 449 939 413 939 q 508 913 484 939 q 533 846 533 888 q 508 781 533 805 q 449 757 484 757 q 389 781 413 757 q 364 846 364 805 z "},"å":{"ha":642,"x_min":42,"x_max":586,"o":"m 417 444 q 385 536 417 503 q 291 568 353 568 q 180 548 223 568 q 105 500 137 527 l 105 623 q 144 635 121 629 q 195 648 168 642 q 250 659 222 655 q 305 663 278 663 q 403 651 358 663 q 483 611 449 639 q 536 539 517 583 q 556 431 556 495 l 556 113 q 569 29 556 54 q 586 0 583 3 l 425 0 q 421 24 423 6 q 418 54 418 42 q 345 10 388 29 q 246 -8 302 -8 q 165 5 203 -8 q 101 41 128 18 q 57 97 73 64 q 42 169 42 129 q 74 278 42 233 q 160 351 107 322 q 279 394 212 380 q 417 410 346 407 l 417 444 m 180 184 q 216 109 180 133 q 295 86 251 86 q 366 100 334 86 q 417 134 398 113 l 417 327 q 336 319 378 327 q 259 294 294 311 q 203 249 225 276 q 180 184 180 222 m 201 843 q 236 928 201 892 q 321 963 271 963 q 405 928 370 963 q 441 843 441 892 q 405 758 441 793 q 321 723 370 723 q 236 758 271 723 q 201 843 201 793 m 259 843 q 277 799 259 817 q 321 781 295 781 q 365 799 346 781 q 383 843 383 817 q 365 887 383 868 q 321 905 346 905 q 277 887 295 905 q 259 843 259 868 z "},"æ":{"ha":1057,"x_min":42,"x_max":1015,"o":"m 725 661 q 939 576 865 661 q 1015 346 1014 492 l 1015 303 l 564 303 q 580 219 564 259 q 623 148 595 179 q 686 98 650 117 q 763 80 722 80 q 817 85 789 80 q 872 101 846 91 q 920 125 899 112 q 953 156 940 139 l 948 38 q 870 6 926 21 q 742 -10 814 -10 q 608 14 670 -10 q 501 83 546 37 q 402 18 461 43 q 275 -8 342 -8 q 107 40 172 -8 q 42 169 42 88 q 74 278 42 233 q 160 351 107 322 q 279 394 212 380 q 417 410 346 407 l 417 444 q 385 536 417 503 q 291 568 353 568 q 180 548 223 568 q 105 500 137 527 l 105 623 q 144 635 121 629 q 195 648 168 642 q 250 659 222 655 q 305 663 278 663 q 427 643 372 663 q 516 576 482 623 q 610 639 557 616 q 725 661 663 661 m 180 184 q 216 109 180 133 q 295 86 251 86 q 366 100 334 86 q 417 134 398 113 l 417 327 q 336 319 378 327 q 259 294 294 311 q 203 249 225 276 q 180 184 180 222 m 728 567 q 613 516 656 567 q 564 393 570 466 l 876 393 q 835 516 868 466 q 728 567 801 567 z "},"ç":{"ha":595,"x_min":38,"x_max":564,"o":"m 182 319 q 237 145 182 211 q 385 80 292 80 q 485 102 436 80 q 564 166 533 125 l 560 38 q 479 6 538 21 q 348 -10 420 -10 q 227 13 284 -10 q 129 77 171 35 q 63 180 88 118 q 38 319 38 241 q 65 463 38 399 q 136 571 91 527 q 239 639 180 615 q 361 663 297 663 q 415 659 386 663 q 470 651 444 656 q 518 640 496 647 q 552 627 540 634 l 552 503 q 485 549 530 528 q 385 570 441 570 q 237 502 292 570 q 182 319 182 434 m 404 11 q 390 -21 396 -5 q 378 -47 383 -34 q 369 -69 372 -61 q 392 -69 369 -67 q 441 -84 415 -72 q 490 -121 468 -96 q 512 -195 512 -147 q 502 -260 512 -231 q 475 -311 492 -289 q 437 -349 458 -334 q 393 -375 415 -364 q 273 -407 340 -401 l 241 -362 q 321 -340 286 -358 q 377 -298 351 -326 q 402 -223 402 -270 q 378 -167 402 -184 q 327 -147 354 -150 q 254 -150 295 -142 q 294 -70 276 -105 q 307 -42 302 -56 q 319 -14 313 -27 q 332 11 326 0 l 404 11 z "},"è":{"ha":682,"x_min":38,"x_max":637,"o":"m 346 661 q 561 576 487 661 q 637 346 635 492 l 637 303 l 185 303 q 201 219 185 259 q 244 148 217 179 q 307 98 271 117 q 385 80 343 80 q 439 85 410 80 q 494 101 468 91 q 541 125 520 112 q 575 156 562 139 l 570 38 q 492 6 548 21 q 364 -10 436 -10 q 239 10 299 -10 q 136 71 180 30 q 65 174 91 112 q 38 319 38 236 q 61 456 38 393 q 126 564 85 519 q 223 635 168 610 q 346 661 279 661 m 350 567 q 235 516 278 567 q 185 393 192 466 l 498 393 q 457 516 490 466 q 350 567 423 567 m 273 937 l 353 937 q 367 892 353 920 q 402 837 382 865 q 445 784 421 809 q 487 742 468 758 l 388 742 q 334 774 367 754 q 271 821 302 795 q 217 876 239 846 q 195 937 195 907 l 273 937 z "},"é":{"ha":682,"x_min":38,"x_max":637,"o":"m 346 661 q 561 576 487 661 q 637 346 635 492 l 637 303 l 185 303 q 201 219 185 259 q 244 148 217 179 q 307 98 271 117 q 385 80 343 80 q 439 85 410 80 q 494 101 468 91 q 541 125 520 112 q 575 156 562 139 l 570 38 q 492 6 548 21 q 364 -10 436 -10 q 239 10 299 -10 q 136 71 180 30 q 65 174 91 112 q 38 319 38 236 q 61 456 38 393 q 126 564 85 519 q 223 635 168 610 q 346 661 279 661 m 350 567 q 235 516 278 567 q 185 393 192 466 l 498 393 q 457 516 490 466 q 350 567 423 567 m 487 937 q 465 876 487 907 q 411 821 442 846 q 347 774 380 795 q 294 742 314 754 l 195 742 q 237 784 214 758 q 280 837 260 809 q 314 892 300 865 q 329 937 329 920 l 407 937 l 487 937 l 487 937 z "},"ê":{"ha":682,"x_min":38,"x_max":637,"o":"m 346 661 q 561 576 487 661 q 637 346 635 492 l 637 303 l 185 303 q 201 219 185 259 q 244 148 217 179 q 307 98 271 117 q 385 80 343 80 q 439 85 410 80 q 494 101 468 91 q 541 125 520 112 q 575 156 562 139 l 570 38 q 492 6 548 21 q 364 -10 436 -10 q 239 10 299 -10 q 136 71 180 30 q 65 174 91 112 q 38 319 38 236 q 61 456 38 393 q 126 564 85 519 q 223 635 168 610 q 346 661 279 661 m 350 567 q 235 516 278 567 q 185 393 192 466 l 498 393 q 457 516 490 466 q 350 567 423 567 m 354 969 q 398 922 370 953 q 458 857 426 891 q 520 792 490 824 q 572 742 551 760 l 473 742 q 414 785 450 758 q 340 845 378 813 q 266 785 302 813 q 208 742 230 758 l 109 742 q 150 783 125 757 q 204 841 176 809 q 263 906 233 872 q 321 969 294 940 l 354 969 z "},"ë":{"ha":682,"x_min":38,"x_max":637,"o":"m 346 661 q 561 576 487 661 q 637 346 635 492 l 637 303 l 185 303 q 201 219 185 259 q 244 148 217 179 q 307 98 271 117 q 385 80 343 80 q 439 85 410 80 q 494 101 468 91 q 541 125 520 112 q 575 156 562 139 l 570 38 q 492 6 548 21 q 364 -10 436 -10 q 239 10 299 -10 q 136 71 180 30 q 65 174 91 112 q 38 319 38 236 q 61 456 38 393 q 126 564 85 519 q 223 635 168 610 q 346 661 279 661 m 350 567 q 235 516 278 567 q 185 393 192 466 l 498 393 q 457 516 490 466 q 350 567 423 567 m 128 846 q 152 913 128 888 q 212 939 177 939 q 272 913 247 939 q 297 846 297 888 q 272 781 297 805 q 212 757 247 757 q 152 781 177 757 q 128 846 128 805 m 383 846 q 408 913 383 888 q 468 939 433 939 q 528 913 503 939 q 552 846 552 888 q 528 781 552 805 q 468 757 503 757 q 408 781 433 757 q 383 846 383 805 z "},"ì":{"ha":329,"x_min":-46,"x_max":268,"o":"m 238 113 q 251 29 238 54 q 268 0 265 3 l 67 0 q 85 27 70 2 q 99 113 99 53 l 99 540 q 85 624 99 599 q 67 653 70 650 l 268 653 q 251 625 265 650 q 238 540 238 600 l 238 113 m 32 937 l 112 937 q 126 892 112 920 q 160 837 140 865 q 204 784 180 809 q 246 742 227 758 l 147 742 q 93 774 126 754 q 30 821 61 795 q -24 876 -2 846 q -46 937 -46 907 l 32 937 z "},"í":{"ha":329,"x_min":67,"x_max":375,"o":"m 238 113 q 251 29 238 54 q 268 0 265 3 l 67 0 q 85 27 70 2 q 99 113 99 53 l 99 540 q 85 624 99 599 q 67 653 70 650 l 268 653 q 251 625 265 650 q 238 540 238 600 l 238 113 m 375 937 q 353 876 375 907 q 299 821 330 846 q 235 774 268 795 q 182 742 203 754 l 83 742 q 125 784 102 758 q 168 837 148 809 q 203 892 188 865 q 217 937 217 920 l 295 937 l 375 937 l 375 937 z "},"î":{"ha":329,"x_min":-67,"x_max":396,"o":"m 238 113 q 251 29 238 54 q 268 0 265 3 l 67 0 q 85 27 70 2 q 99 113 99 53 l 99 540 q 85 624 99 599 q 67 653 70 650 l 268 653 q 251 625 265 650 q 238 540 238 600 l 238 113 m 179 969 q 223 922 195 953 q 283 857 251 891 q 345 792 314 824 q 396 742 375 760 l 297 742 q 239 785 275 758 q 164 845 203 813 q 90 785 126 813 q 32 742 54 758 l -67 742 q -26 783 -51 757 q 29 841 0 809 q 88 906 57 872 q 145 969 118 940 l 179 969 z "},"ï":{"ha":329,"x_min":-48,"x_max":377,"o":"m 238 113 q 251 29 238 54 q 268 0 265 3 l 67 0 q 85 27 70 2 q 99 113 99 53 l 99 540 q 85 624 99 599 q 67 653 70 650 l 268 653 q 251 625 265 650 q 238 540 238 600 l 238 113 m -48 846 q -23 913 -48 888 q 37 939 2 939 q 97 913 72 939 q 121 846 121 888 q 97 781 121 805 q 37 757 72 757 q -23 781 2 757 q -48 846 -48 805 m 208 846 q 232 913 208 888 q 292 939 257 939 q 352 913 327 939 q 377 846 377 888 q 352 781 377 805 q 292 757 327 757 q 232 781 257 757 q 208 846 208 805 z "},"ð":{"ha":683,"x_min":42,"x_max":642,"o":"m 348 655 q 398 651 366 655 q 452 635 429 648 q 370 765 420 709 q 275 860 321 822 q 195 916 228 897 q 160 937 161 936 l 243 974 q 271 958 241 974 q 345 909 300 942 q 441 828 390 876 q 538 711 493 779 q 612 558 583 643 q 642 369 642 473 q 620 213 642 283 q 560 95 599 144 q 469 19 522 46 q 353 -8 415 -8 q 223 16 281 -8 q 125 84 166 40 q 63 189 85 128 q 42 326 42 251 q 67 458 42 398 q 135 562 93 519 q 232 630 177 605 q 348 655 287 655 m 180 334 q 196 224 180 270 q 238 150 212 179 q 294 109 263 121 q 353 96 324 96 q 405 108 378 96 q 454 148 433 120 q 489 224 476 177 q 503 343 503 271 q 491 424 503 385 q 458 493 479 463 q 409 542 437 524 q 346 560 380 560 q 291 547 319 560 q 237 506 262 533 q 196 436 212 479 q 180 334 180 393 m 158 777 l 471 985 l 517 920 l 203 714 l 158 777 z "},"ñ":{"ha":725,"x_min":67,"x_max":667,"o":"m 498 428 q 473 523 498 487 q 404 559 447 559 q 317 543 358 559 q 238 495 276 527 l 238 113 q 251 29 238 54 q 268 0 265 3 l 67 0 q 85 27 70 2 q 99 113 99 53 l 99 540 q 85 624 99 599 q 67 653 70 650 l 231 653 q 235 621 233 643 q 238 576 238 599 q 335 637 279 613 q 441 661 391 661 q 541 642 503 661 q 601 591 580 623 q 630 520 623 560 q 637 439 637 481 l 637 113 q 651 29 637 54 q 667 0 664 3 l 466 0 q 484 27 469 2 q 498 113 498 53 l 498 428 l 498 428 m 450 758 q 392 767 426 758 q 334 795 358 776 q 293 818 314 809 q 252 825 271 827 q 218 807 233 822 q 198 758 203 792 l 126 758 q 173 876 133 838 q 270 913 214 913 q 326 904 294 913 q 383 876 358 894 q 425 853 402 860 q 468 850 447 846 q 504 869 489 854 q 524 913 519 884 l 595 913 q 547 796 587 833 q 450 758 506 758 z "},"ò":{"ha":709,"x_min":38,"x_max":669,"o":"m 38 319 q 64 465 38 401 q 133 572 89 528 q 233 639 176 616 q 354 663 291 663 q 475 639 418 663 q 575 572 532 616 q 643 465 618 528 q 669 319 669 401 q 643 182 669 243 q 575 79 618 121 q 475 14 532 37 q 354 -10 418 -10 q 233 14 291 -10 q 133 79 176 37 q 64 182 89 121 q 38 319 38 243 m 182 319 q 228 145 182 211 q 353 80 275 80 q 477 145 431 80 q 524 319 524 211 q 477 502 524 434 q 353 570 431 570 q 228 502 275 570 q 182 319 182 434 m 286 937 l 366 937 q 380 892 366 920 q 414 837 394 865 q 457 784 434 809 q 500 742 481 758 l 401 742 q 347 774 380 754 q 283 821 314 795 q 230 876 252 846 q 208 937 208 907 l 286 937 z "},"ó":{"ha":709,"x_min":38,"x_max":669,"o":"m 38 319 q 64 465 38 401 q 133 572 89 528 q 233 639 176 616 q 354 663 291 663 q 475 639 418 663 q 575 572 532 616 q 643 465 618 528 q 669 319 669 401 q 643 182 669 243 q 575 79 618 121 q 475 14 532 37 q 354 -10 418 -10 q 233 14 291 -10 q 133 79 176 37 q 64 182 89 121 q 38 319 38 243 m 182 319 q 228 145 182 211 q 353 80 275 80 q 477 145 431 80 q 524 319 524 211 q 477 502 524 434 q 353 570 431 570 q 228 502 275 570 q 182 319 182 434 m 500 937 q 477 876 500 907 q 424 821 455 846 q 360 774 393 795 q 307 742 327 754 l 208 742 q 250 784 227 758 q 293 837 273 809 q 327 892 313 865 q 342 937 342 920 l 420 937 l 500 937 l 500 937 z "},"ô":{"ha":709,"x_min":38,"x_max":669,"o":"m 38 319 q 64 465 38 401 q 133 572 89 528 q 233 639 176 616 q 354 663 291 663 q 475 639 418 663 q 575 572 532 616 q 643 465 618 528 q 669 319 669 401 q 643 182 669 243 q 575 79 618 121 q 475 14 532 37 q 354 -10 418 -10 q 233 14 291 -10 q 133 79 176 37 q 64 182 89 121 q 38 319 38 243 m 182 319 q 228 145 182 211 q 353 80 275 80 q 477 145 431 80 q 524 319 524 211 q 477 502 524 434 q 353 570 431 570 q 228 502 275 570 q 182 319 182 434 m 369 969 q 413 922 385 953 q 473 857 441 891 q 535 792 504 824 q 586 742 565 760 l 487 742 q 429 785 465 758 q 354 845 393 813 q 280 785 316 813 q 222 742 244 758 l 123 742 q 164 783 139 757 q 219 841 190 809 q 278 906 247 872 q 335 969 308 940 l 369 969 z "},"õ":{"ha":709,"x_min":38,"x_max":669,"o":"m 38 319 q 64 465 38 401 q 133 572 89 528 q 233 639 176 616 q 354 663 291 663 q 475 639 418 663 q 575 572 532 616 q 643 465 618 528 q 669 319 669 401 q 643 182 669 243 q 575 79 618 121 q 475 14 532 37 q 354 -10 418 -10 q 233 14 291 -10 q 133 79 176 37 q 64 182 89 121 q 38 319 38 243 m 182 319 q 228 145 182 211 q 353 80 275 80 q 477 145 431 80 q 524 319 524 211 q 477 502 524 434 q 353 570 431 570 q 228 502 275 570 q 182 319 182 434 m 444 758 q 386 767 420 758 q 327 795 351 776 q 287 818 308 809 q 246 825 265 827 q 212 807 227 822 q 192 758 196 792 l 120 758 q 167 876 126 838 q 263 913 208 913 q 319 904 287 913 q 377 876 351 894 q 418 853 396 860 q 461 850 441 846 q 497 869 482 854 q 517 913 512 884 l 589 913 q 540 796 581 833 q 444 758 500 758 z "},"ö":{"ha":709,"x_min":38,"x_max":669,"o":"m 38 319 q 64 465 38 401 q 133 572 89 528 q 233 639 176 616 q 354 663 291 663 q 475 639 418 663 q 575 572 532 616 q 643 465 618 528 q 669 319 669 401 q 643 182 669 243 q 575 79 618 121 q 475 14 532 37 q 354 -10 418 -10 q 233 14 291 -10 q 133 79 176 37 q 64 182 89 121 q 38 319 38 243 m 182 319 q 228 145 182 211 q 353 80 275 80 q 477 145 431 80 q 524 319 524 211 q 477 502 524 434 q 353 570 431 570 q 228 502 275 570 q 182 319 182 434 m 142 846 q 167 913 142 888 q 227 939 192 939 q 287 913 262 939 q 311 846 311 888 q 287 781 311 805 q 227 757 262 757 q 167 781 192 757 q 142 846 142 805 m 398 846 q 422 913 398 888 q 482 939 447 939 q 542 913 517 939 q 567 846 567 888 q 542 781 567 805 q 482 757 517 757 q 422 781 447 757 q 398 846 398 805 z "},"÷":{"ha":736,"x_min":77,"x_max":683,"o":"m 683 484 l 683 378 l 77 378 l 77 484 l 683 484 m 481 192 q 451 126 481 150 q 380 102 421 102 q 309 126 338 102 q 279 192 279 150 q 309 258 279 233 q 380 283 338 283 q 451 258 421 283 q 481 192 481 233 m 481 670 q 451 605 481 629 q 380 581 421 581 q 309 605 338 581 q 279 670 279 629 q 309 737 279 712 q 380 761 338 761 q 451 737 421 761 q 481 670 481 712 z "},"ø":{"ha":709,"x_min":38,"x_max":669,"o":"m 38 0 l 562 664 l 669 664 l 145 0 l 38 0 m 38 319 q 64 465 38 401 q 133 572 89 528 q 233 639 176 616 q 354 663 291 663 q 475 639 418 663 q 575 572 532 616 q 643 465 618 528 q 669 319 669 401 q 643 182 669 243 q 575 79 618 121 q 475 14 532 37 q 354 -10 418 -10 q 233 14 291 -10 q 133 79 176 37 q 64 182 89 121 q 38 319 38 243 m 182 319 q 228 145 182 211 q 353 80 275 80 q 477 145 431 80 q 524 319 524 211 q 477 502 524 434 q 353 570 431 570 q 228 502 275 570 q 182 319 182 434 z "},"ù":{"ha":731,"x_min":67,"x_max":667,"o":"m 236 225 q 262 130 236 166 q 330 94 287 94 q 417 110 377 94 q 496 158 458 126 l 496 540 q 483 624 496 599 q 466 653 469 650 l 667 653 q 650 626 664 651 q 635 540 635 600 l 635 113 q 650 29 635 54 q 667 0 664 3 l 503 0 q 499 32 501 10 q 496 77 496 54 q 399 16 455 40 q 294 -8 343 -8 q 193 11 231 -8 q 133 61 155 30 q 105 133 112 93 q 97 214 97 172 l 97 540 q 84 624 97 599 q 67 653 70 650 l 268 653 q 251 626 265 651 q 236 540 236 600 l 236 225 m 217 937 l 297 937 q 311 892 297 920 q 346 837 326 865 q 389 784 366 809 q 431 742 412 758 l 332 742 q 279 774 311 754 q 215 821 246 795 q 161 876 184 846 q 139 937 139 907 l 217 937 z "},"ú":{"ha":731,"x_min":67,"x_max":667,"o":"m 236 225 q 262 130 236 166 q 330 94 287 94 q 417 110 377 94 q 496 158 458 126 l 496 540 q 483 624 496 599 q 466 653 469 650 l 667 653 q 650 626 664 651 q 635 540 635 600 l 635 113 q 650 29 635 54 q 667 0 664 3 l 503 0 q 499 32 501 10 q 496 77 496 54 q 399 16 455 40 q 294 -8 343 -8 q 193 11 231 -8 q 133 61 155 30 q 105 133 112 93 q 97 214 97 172 l 97 540 q 84 624 97 599 q 67 653 70 650 l 268 653 q 251 626 265 651 q 236 540 236 600 l 236 225 m 607 937 q 584 876 607 907 q 531 821 562 846 q 467 774 500 795 q 413 742 434 754 l 314 742 q 357 784 334 758 q 400 837 380 809 q 434 892 420 865 q 449 937 449 920 l 527 937 l 607 937 l 607 937 z "},"û":{"ha":731,"x_min":67,"x_max":667,"o":"m 236 225 q 262 130 236 166 q 330 94 287 94 q 417 110 377 94 q 496 158 458 126 l 496 540 q 483 624 496 599 q 466 653 469 650 l 667 653 q 650 626 664 651 q 635 540 635 600 l 635 113 q 650 29 635 54 q 667 0 664 3 l 503 0 q 499 32 501 10 q 496 77 496 54 q 399 16 455 40 q 294 -8 343 -8 q 193 11 231 -8 q 133 61 155 30 q 105 133 112 93 q 97 214 97 172 l 97 540 q 84 624 97 599 q 67 653 70 650 l 268 653 q 251 626 265 651 q 236 540 236 600 l 236 225 m 380 969 q 424 922 396 953 q 484 857 452 891 q 546 792 516 824 q 597 742 576 760 l 498 742 q 440 785 476 758 q 366 845 404 813 q 291 785 327 813 q 233 742 255 758 l 134 742 q 176 783 150 757 q 230 841 201 809 q 289 906 259 872 q 346 969 319 940 l 380 969 z "},"ü":{"ha":731,"x_min":67,"x_max":667,"o":"m 236 225 q 262 130 236 166 q 330 94 287 94 q 417 110 377 94 q 496 158 458 126 l 496 540 q 483 624 496 599 q 466 653 469 650 l 667 653 q 650 626 664 651 q 635 540 635 600 l 635 113 q 650 29 635 54 q 667 0 664 3 l 503 0 q 499 32 501 10 q 496 77 496 54 q 399 16 455 40 q 294 -8 343 -8 q 193 11 231 -8 q 133 61 155 30 q 105 133 112 93 q 97 214 97 172 l 97 540 q 84 624 97 599 q 67 653 70 650 l 268 653 q 251 626 265 651 q 236 540 236 600 l 236 225 m 153 846 q 178 913 153 888 q 238 939 203 939 q 298 913 273 939 q 322 846 322 888 q 298 781 322 805 q 238 757 273 757 q 178 781 203 757 q 153 846 153 805 m 409 846 q 433 913 409 888 q 493 939 458 939 q 553 913 528 939 q 578 846 578 888 q 553 781 578 805 q 493 757 528 757 q 433 781 458 757 q 409 846 409 805 z "},"ý":{"ha":672,"x_min":11,"x_max":663,"o":"m 53 -169 q 116 -176 83 -182 q 180 -148 148 -171 q 238 -84 211 -126 q 284 21 265 -42 q 264 66 278 35 q 227 156 251 97 q 167 309 203 216 q 81 540 131 402 q 38 624 59 599 q 11 653 16 650 l 220 653 q 217 645 220 651 q 212 625 214 639 q 214 591 211 611 q 228 540 217 570 l 362 196 l 487 540 q 501 591 498 570 q 503 625 504 611 q 498 645 501 639 q 495 653 495 651 l 663 653 q 636 624 658 650 q 592 540 615 599 q 518 338 549 423 q 463 192 487 254 q 421 86 439 129 q 391 10 404 43 q 323 -131 356 -77 q 259 -216 291 -185 q 196 -257 227 -246 q 137 -268 166 -268 q 71 -238 96 -268 q 53 -169 46 -208 m 562 937 q 540 876 562 907 q 486 821 517 846 q 422 774 455 795 q 369 742 390 754 l 270 742 q 312 784 289 758 q 355 837 335 809 q 390 892 375 865 q 404 937 404 920 l 482 937 l 562 937 l 562 937 z "},"þ":{"ha":722,"x_min":67,"x_max":670,"o":"m 238 581 q 326 642 276 623 q 425 661 375 661 q 524 638 479 661 q 603 573 570 615 q 653 471 635 532 q 670 337 670 410 q 647 194 670 257 q 583 87 624 131 q 489 20 543 43 q 377 -3 436 -3 q 308 3 345 -3 q 238 27 271 10 l 238 -158 q 251 -243 238 -217 q 268 -271 265 -268 l 67 -271 q 85 -244 70 -270 q 99 -158 99 -219 l 99 859 q 85 943 99 918 q 67 972 70 969 l 268 972 q 251 944 265 969 q 238 859 238 920 l 238 581 m 532 329 q 520 437 532 393 q 486 507 508 481 q 436 545 465 533 q 372 557 407 557 q 295 536 330 557 q 238 485 259 514 l 238 125 q 287 105 262 112 q 340 97 313 97 q 414 111 380 97 q 475 153 449 125 q 516 226 501 182 q 532 329 532 270 z "},"ÿ":{"ha":672,"x_min":11,"x_max":663,"o":"m 53 -169 q 116 -176 83 -182 q 180 -148 148 -171 q 238 -84 211 -126 q 284 21 265 -42 q 264 66 278 35 q 227 156 251 97 q 167 309 203 216 q 81 540 131 402 q 38 624 59 599 q 11 653 16 650 l 220 653 q 217 645 220 651 q 212 625 214 639 q 214 591 211 611 q 228 540 217 570 l 362 196 l 487 540 q 501 591 498 570 q 503 625 504 611 q 498 645 501 639 q 495 653 495 651 l 663 653 q 636 624 658 650 q 592 540 615 599 q 518 338 549 423 q 463 192 487 254 q 421 86 439 129 q 391 10 404 43 q 323 -131 356 -77 q 259 -216 291 -185 q 196 -257 227 -246 q 137 -268 166 -268 q 71 -238 96 -268 q 53 -169 46 -208 m 123 846 q 148 913 123 888 q 208 939 172 939 q 267 913 243 939 q 292 846 292 888 q 267 781 292 805 q 208 757 243 757 q 148 781 172 757 q 123 846 123 805 m 378 846 q 403 913 378 888 q 463 939 428 939 q 523 913 498 939 q 548 846 548 888 q 523 781 548 805 q 463 757 498 757 q 403 781 428 757 q 378 846 378 805 z "},"ı":{"ha":329,"x_min":67,"x_max":268,"o":"m 238 113 q 251 29 238 54 q 268 0 265 3 l 67 0 q 85 27 70 2 q 99 113 99 53 l 99 540 q 85 624 99 599 q 67 653 70 650 l 268 653 q 251 625 265 650 q 238 540 238 600 l 238 113 z "},"Ł":{"ha":610,"x_min":2,"x_max":595,"o":"m 586 0 l 51 0 q 60 10 53 0 q 76 37 67 19 q 92 81 85 54 q 99 145 99 109 l 99 795 q 92 856 99 830 q 77 901 85 883 q 61 929 69 920 q 51 940 53 939 l 284 940 q 275 929 283 939 q 259 902 268 920 q 244 857 251 884 q 238 795 238 830 l 238 145 l 238 107 l 441 107 q 500 113 476 107 q 543 128 525 118 q 572 151 560 137 q 595 182 584 164 l 586 0 m 374 624 l 374 519 l 2 342 l 2 447 l 374 624 z "},"ł":{"ha":409,"x_min":18,"x_max":390,"o":"m 270 567 l 390 624 l 390 519 l 270 461 l 270 113 q 283 29 270 54 q 300 0 297 3 l 99 0 q 117 27 102 2 q 131 113 131 53 l 131 396 l 18 342 l 18 447 l 131 501 l 131 859 q 117 943 131 918 q 99 972 102 969 l 300 972 q 283 944 297 969 q 270 859 270 920 l 270 567 z "},"Œ":{"ha":1165,"x_min":51,"x_max":1116,"o":"m 51 465 q 91 670 51 581 q 200 818 131 758 q 361 909 268 878 q 559 940 453 940 l 1108 940 l 1116 773 q 1066 817 1100 801 q 961 833 1033 833 l 758 833 l 758 535 l 964 535 q 1014 542 993 535 q 1049 557 1034 549 q 1071 573 1063 565 q 1081 583 1079 581 l 1081 388 q 1072 397 1079 390 q 1050 412 1065 404 q 1015 427 1036 420 q 964 434 993 434 l 758 434 l 758 107 l 961 107 q 1021 111 996 107 q 1063 124 1046 115 q 1093 144 1081 133 q 1116 174 1105 156 l 1106 0 l 559 0 q 361 32 453 0 q 200 124 268 64 q 91 270 131 184 q 51 465 51 356 m 621 107 q 621 200 621 142 q 620 344 621 257 q 619 552 619 431 q 619 838 619 674 l 557 838 q 421 813 485 838 q 307 742 356 789 q 230 626 259 694 q 201 469 201 557 q 230 319 201 386 q 307 205 259 252 q 421 133 356 158 q 557 107 485 107 l 621 107 z "},"œ":{"ha":1153,"x_min":38,"x_max":1122,"o":"m 832 661 q 1046 576 972 661 q 1122 346 1121 492 l 1122 303 l 670 303 q 686 219 670 259 q 730 148 702 179 q 793 98 757 117 q 870 80 829 80 q 924 85 896 80 q 979 101 953 91 q 1027 125 1006 112 q 1060 156 1047 139 l 1055 38 q 977 6 1033 21 q 849 -10 921 -10 q 706 17 773 -10 q 594 99 640 43 q 488 18 549 46 q 354 -10 426 -10 q 233 14 291 -10 q 133 79 176 37 q 64 182 89 121 q 38 319 38 243 q 64 465 38 401 q 133 572 89 528 q 233 639 176 616 q 354 663 291 663 q 489 632 426 663 q 597 546 552 602 q 698 631 639 600 q 832 661 758 661 m 182 319 q 228 145 182 211 q 353 80 275 80 q 477 145 431 80 q 524 319 524 211 q 477 502 524 434 q 353 570 431 570 q 228 502 275 570 q 182 319 182 434 m 835 567 q 720 516 763 567 q 670 393 677 466 l 983 393 q 942 516 975 466 q 835 567 908 567 z "},"Š":{"ha":655,"x_min":45,"x_max":624,"o":"m 474 225 q 461 286 474 260 q 426 332 449 311 q 374 370 404 353 q 311 402 345 386 q 218 453 265 425 q 133 520 171 482 q 73 604 96 557 q 49 710 49 651 q 71 807 49 763 q 132 884 93 851 q 223 935 171 916 q 338 953 276 953 q 483 937 426 953 q 573 902 540 921 l 573 754 q 500 824 554 795 q 374 852 447 852 q 243 816 286 852 q 201 733 201 779 q 216 680 201 704 q 256 635 231 656 q 314 594 281 613 q 380 556 346 575 q 476 496 431 527 q 553 430 520 466 q 605 350 586 394 q 624 247 624 305 q 600 141 624 190 q 533 57 576 93 q 432 2 490 22 q 305 -18 374 -18 q 154 -2 214 -18 q 59 34 94 14 l 45 200 q 82 156 57 177 q 139 118 107 134 q 207 93 171 102 q 278 83 243 83 q 362 96 326 83 q 423 129 398 109 q 461 174 449 148 q 474 225 474 200 m 308 1030 q 251 1093 281 1058 q 192 1158 220 1127 q 137 1216 163 1189 q 96 1256 112 1242 l 195 1256 q 253 1213 217 1240 q 327 1154 289 1186 q 402 1213 366 1186 q 460 1256 437 1240 l 559 1256 q 508 1207 538 1239 q 445 1141 477 1175 q 386 1077 413 1108 q 342 1030 358 1046 l 308 1030 z "},"š":{"ha":560,"x_min":48,"x_max":511,"o":"m 370 168 q 347 210 370 192 q 291 245 324 228 q 216 280 257 262 q 142 324 176 299 q 85 384 109 350 q 62 468 62 418 q 82 552 62 516 q 136 612 102 587 q 215 650 169 637 q 313 663 260 663 q 409 651 366 663 q 481 627 453 640 l 481 509 q 417 549 461 532 q 322 567 372 567 q 236 548 271 567 q 201 492 201 530 q 224 448 201 466 q 281 413 247 429 q 355 379 314 398 q 429 336 396 361 q 486 276 463 311 q 509 190 509 241 q 489 105 509 142 q 433 43 468 69 q 351 4 398 18 q 252 -10 305 -10 q 149 2 200 -10 q 72 27 99 14 l 64 164 q 143 110 91 134 q 249 86 195 86 q 338 106 305 86 q 370 168 370 126 m 260 774 q 203 837 233 803 q 144 903 172 872 q 89 960 115 934 q 48 1001 64 987 l 147 1001 q 205 958 169 985 q 279 899 241 931 q 354 958 318 931 q 412 1001 390 985 l 511 1001 q 460 951 490 983 q 398 886 429 920 q 338 821 366 852 q 294 774 310 790 l 260 774 z "},"Ÿ":{"ha":848,"x_min":6,"x_max":841,"o":"m 498 370 l 498 145 q 504 84 498 110 q 520 39 511 57 q 536 11 528 21 q 544 0 543 2 l 311 0 q 320 10 313 0 q 336 37 327 19 q 352 81 345 54 q 359 145 359 109 l 359 370 l 101 825 q 42 904 72 873 q 6 940 11 936 l 275 940 q 270 930 275 939 q 263 906 265 921 q 263 871 260 891 q 279 825 267 851 l 465 508 l 631 825 q 646 871 643 851 q 646 906 648 891 q 639 930 643 921 q 634 940 635 939 l 841 940 q 805 906 837 936 q 746 825 774 876 l 498 370 m 252 1117 q 277 1185 252 1159 q 337 1210 302 1210 q 397 1185 372 1210 q 421 1117 421 1159 q 397 1052 421 1076 q 337 1028 372 1028 q 277 1052 302 1028 q 252 1117 252 1076 m 508 1117 q 532 1185 508 1159 q 592 1210 557 1210 q 652 1185 627 1210 q 677 1117 677 1159 q 652 1052 677 1076 q 592 1028 627 1028 q 532 1052 557 1028 q 508 1117 508 1076 z "},"Ž":{"ha":766,"x_min":34,"x_max":730,"o":"m 35 94 q 76 160 48 117 q 142 260 104 203 q 227 386 180 318 q 326 530 275 455 q 432 682 378 605 q 536 833 485 758 l 190 833 q 88 817 120 833 q 35 766 56 800 l 38 940 l 730 940 l 730 862 q 663 758 712 830 q 544 583 615 685 q 388 358 474 481 q 212 107 302 236 l 575 107 q 635 111 610 107 q 677 124 659 115 q 706 144 694 133 q 730 174 718 156 l 726 0 l 34 0 l 35 94 m 364 1030 q 307 1093 337 1058 q 247 1158 276 1127 q 193 1216 219 1189 q 152 1256 168 1242 l 251 1256 q 309 1213 273 1240 q 383 1154 345 1186 q 457 1213 421 1186 q 516 1256 493 1240 l 615 1256 q 564 1207 594 1239 q 501 1141 533 1175 q 441 1077 469 1108 q 398 1030 413 1046 l 364 1030 z "},"ž":{"ha":544,"x_min":34,"x_max":520,"o":"m 35 78 q 73 140 48 99 q 131 230 99 180 q 197 333 163 279 q 261 433 231 386 q 313 516 291 481 q 343 562 335 551 l 190 562 q 88 551 120 562 q 35 511 56 540 l 38 653 l 520 653 l 520 591 q 485 531 509 572 q 426 439 460 490 q 357 332 393 388 q 289 227 321 276 q 232 140 257 177 q 200 91 208 104 l 366 91 q 425 93 401 91 q 468 100 450 94 q 497 115 485 105 q 520 142 509 125 l 517 0 l 34 0 l 35 78 m 252 774 q 195 837 225 803 q 136 903 164 872 q 81 960 107 934 q 40 1001 56 987 l 139 1001 q 197 958 161 985 q 271 899 233 931 q 346 958 310 931 q 404 1001 382 985 l 503 1001 q 452 951 482 983 q 390 886 421 920 q 330 821 358 852 q 286 774 302 790 l 252 774 z "},"ƒ":{"ha":717,"x_min":29,"x_max":694,"o":"m 303 564 l 201 564 l 201 653 l 318 653 l 337 773 q 421 927 353 872 q 578 982 489 982 q 652 973 629 982 q 694 956 675 964 l 693 841 q 660 874 685 862 q 600 886 635 886 q 520 861 554 886 q 476 769 485 837 l 457 653 l 597 653 l 597 564 l 442 564 l 385 193 q 301 39 369 94 q 144 -16 233 -16 q 70 -7 93 -16 q 29 10 48 2 l 32 125 q 121 80 48 80 q 202 105 168 80 q 247 196 236 129 l 303 564 z "},"ˆ":{"ha":536,"x_min":38,"x_max":501,"o":"m 284 969 q 328 922 300 953 q 388 857 356 891 q 450 792 420 824 q 501 742 481 760 l 402 742 q 344 785 380 758 q 270 845 308 813 q 196 785 231 813 q 137 742 160 758 l 38 742 q 80 783 54 757 q 134 841 105 809 q 193 906 163 872 q 251 969 223 940 l 284 969 z "},"ˇ":{"ha":536,"x_min":38,"x_max":501,"o":"m 251 774 q 193 837 223 803 q 134 903 163 872 q 80 960 105 934 q 38 1001 54 987 l 137 1001 q 196 958 160 985 q 270 899 231 931 q 344 958 308 931 q 402 1001 380 985 l 501 1001 q 450 951 481 983 q 388 886 420 920 q 328 821 356 852 q 284 774 300 790 l 251 774 z "},"˘":{"ha":359,"x_min":18,"x_max":345,"o":"m 179 758 q 123 770 150 758 q 73 805 96 782 q 36 858 51 827 q 18 929 21 889 l 89 929 q 123 868 97 888 q 179 849 148 849 l 184 849 q 239 868 214 849 q 273 929 265 888 l 345 929 q 326 858 342 889 q 289 805 311 827 q 239 770 267 782 q 184 758 212 758 l 179 758 z "},"˙":{"ha":294,"x_min":67,"x_max":236,"o":"m 67 846 q 92 913 67 888 q 152 939 117 939 q 212 913 187 939 q 236 846 236 888 q 212 781 236 805 q 152 757 187 757 q 92 781 117 757 q 67 846 67 805 z "},"˚":{"ha":477,"x_min":120,"x_max":359,"o":"m 120 843 q 155 928 120 892 q 239 963 190 963 q 324 928 289 963 q 359 843 359 892 q 324 758 359 793 q 239 723 289 723 q 155 758 190 723 q 120 843 120 793 m 177 843 q 196 799 177 817 q 239 781 214 781 q 283 799 265 781 q 302 843 302 817 q 283 887 302 868 q 239 905 265 905 q 196 887 214 905 q 177 843 177 868 z "},"˛":{"ha":319,"x_min":38,"x_max":295,"o":"m 236 11 q 184 -45 212 -11 q 152 -126 156 -80 q 176 -207 145 -182 q 246 -231 208 -231 q 264 -231 255 -231 q 281 -228 273 -230 q 295 -225 289 -227 l 259 -286 q 233 -295 247 -291 q 205 -303 220 -299 q 172 -307 190 -307 q 129 -302 152 -308 q 85 -279 105 -295 q 52 -239 65 -263 q 38 -179 38 -214 q 49 -125 38 -153 q 77 -72 59 -97 q 117 -25 94 -46 q 164 11 140 -3 l 236 11 l 236 11 z "},"˜":{"ha":516,"x_min":26,"x_max":495,"o":"m 350 758 q 291 767 326 758 q 233 795 257 776 q 192 818 214 809 q 152 825 171 827 q 117 807 133 822 q 97 758 102 792 l 26 758 q 73 876 32 838 q 169 913 113 913 q 225 904 193 913 q 283 876 257 894 q 324 853 302 860 q 367 850 346 846 q 403 869 388 854 q 423 913 418 884 l 495 913 q 446 796 487 833 q 350 758 405 758 z "},"˝":{"ha":597,"x_min":150,"x_max":650,"o":"m 442 937 q 420 876 442 907 q 366 821 398 846 q 303 774 335 795 q 249 742 270 754 l 150 742 q 192 784 169 758 q 235 837 216 809 q 270 892 255 865 q 284 937 284 920 l 362 937 l 442 937 m 650 937 q 627 876 650 907 q 574 821 605 846 q 510 774 543 795 q 457 742 477 754 l 358 742 q 400 784 377 758 q 443 837 423 809 q 477 892 463 865 q 492 937 492 920 l 570 937 l 650 937 z "},"–":{"ha":736,"x_min":2,"x_max":734,"o":"m 734 479 l 734 374 l 2 374 l 2 479 l 734 479 z "},"—":{"ha":1502,"x_min":2,"x_max":1501,"o":"m 1501 479 l 1501 374 l 2 374 l 2 479 l 1501 479 z "},"‘":{"ha":326,"x_min":67,"x_max":268,"o":"m 67 744 q 114 881 67 817 q 262 969 161 945 q 207 908 231 945 q 182 841 182 870 q 191 816 182 829 q 212 798 200 803 q 253 767 238 789 q 268 717 268 746 q 239 651 268 675 q 168 626 209 626 q 97 657 126 626 q 67 744 67 688 z "},"’":{"ha":326,"x_min":67,"x_max":268,"o":"m 268 851 q 221 714 268 777 q 73 626 174 650 q 129 687 104 650 q 153 754 153 725 q 144 779 153 766 q 123 797 136 792 q 82 828 97 806 q 67 878 67 849 q 97 944 67 920 q 168 969 126 969 q 239 938 209 969 q 268 851 268 907 z "},"‚":{"ha":330,"x_min":67,"x_max":268,"o":"m 268 53 q 221 -85 268 -21 q 73 -172 174 -148 q 129 -111 104 -148 q 153 -45 153 -73 q 144 -19 153 -32 q 123 -2 136 -6 q 82 30 97 8 q 67 80 67 51 q 97 146 67 121 q 168 171 126 171 q 239 140 209 171 q 268 53 268 109 z "},"“":{"ha":556,"x_min":67,"x_max":508,"o":"m 67 744 q 114 881 67 817 q 262 969 161 945 q 207 908 231 945 q 182 841 182 870 q 191 816 182 829 q 212 798 200 803 q 253 767 238 789 q 268 717 268 746 q 239 651 268 675 q 168 626 209 626 q 97 657 126 626 q 67 744 67 688 m 307 744 q 354 881 307 817 q 501 969 401 945 q 446 908 471 945 q 421 841 421 870 q 430 816 421 829 q 452 798 439 803 q 492 767 477 789 q 508 717 508 746 q 478 651 508 675 q 407 626 449 626 q 336 657 366 626 q 307 744 307 688 z "},"”":{"ha":567,"x_min":67,"x_max":508,"o":"m 268 851 q 221 714 268 777 q 73 626 174 650 q 129 687 104 650 q 153 754 153 725 q 144 779 153 766 q 123 797 136 792 q 82 828 97 806 q 67 878 67 849 q 97 944 67 920 q 168 969 126 969 q 239 938 209 969 q 268 851 268 907 m 508 851 q 461 714 508 777 q 313 626 413 650 q 368 687 343 650 q 393 754 393 725 q 384 779 393 766 q 362 797 375 792 q 322 828 337 806 q 307 878 307 849 q 336 944 307 920 q 407 969 366 969 q 478 938 449 969 q 508 851 508 907 z "},"„":{"ha":567,"x_min":67,"x_max":508,"o":"m 268 53 q 221 -85 268 -21 q 73 -172 174 -148 q 129 -111 104 -148 q 153 -45 153 -73 q 144 -19 153 -32 q 123 -2 136 -6 q 82 30 97 8 q 67 80 67 51 q 97 146 67 121 q 168 171 126 171 q 239 140 209 171 q 268 53 268 109 m 508 53 q 461 -85 508 -21 q 313 -172 413 -148 q 368 -111 343 -148 q 393 -45 393 -73 q 384 -19 393 -32 q 362 -2 375 -6 q 322 30 337 8 q 307 80 307 51 q 336 146 307 121 q 407 171 366 171 q 478 140 449 171 q 508 53 508 109 z "},"†":{"ha":736,"x_min":140,"x_max":619,"o":"m 433 969 l 433 702 l 619 718 l 619 613 l 433 629 l 433 -85 l 327 -85 l 327 629 l 140 613 l 140 718 l 327 702 l 327 969 l 433 969 z "},"‡":{"ha":736,"x_min":140,"x_max":619,"o":"m 433 969 l 433 702 l 619 718 l 619 613 l 433 629 l 433 255 l 619 271 l 619 166 l 433 182 l 433 -85 l 327 -85 l 327 182 l 140 166 l 140 271 l 327 255 l 327 629 l 140 613 l 140 718 l 327 702 l 327 969 l 433 969 z "},"•":{"ha":514,"x_min":65,"x_max":449,"o":"m 65 398 q 81 476 65 441 q 122 536 96 511 q 183 576 148 562 q 257 589 217 589 q 331 576 297 589 q 392 536 366 562 q 433 476 418 511 q 449 398 449 441 q 433 322 449 356 q 392 263 418 287 q 331 226 366 239 q 257 212 297 212 q 183 226 217 212 q 122 263 148 239 q 81 322 96 287 q 65 398 65 356 z "},"…":{"ha":985,"x_min":67,"x_max":923,"o":"m 67 80 q 97 146 67 121 q 168 171 126 171 q 239 146 209 171 q 268 80 268 121 q 239 14 268 38 q 168 -10 209 -10 q 97 14 126 -10 q 67 80 67 38 m 394 80 q 424 146 394 121 q 495 171 453 171 q 566 146 536 171 q 595 80 595 121 q 566 14 595 38 q 495 -10 536 -10 q 424 14 453 -10 q 394 80 394 38 m 722 80 q 751 146 722 121 q 822 171 781 171 q 893 146 864 171 q 923 80 923 121 q 893 14 923 38 q 822 -10 864 -10 q 751 14 781 -10 q 722 80 722 38 z "},"‰":{"ha":1186,"x_min":30,"x_max":1146,"o":"m 1146 225 q 1132 127 1146 171 q 1092 53 1117 83 q 1034 6 1066 22 q 964 -10 1001 -10 q 837 53 889 -10 q 709 -10 784 -10 q 639 6 672 -10 q 581 53 607 22 q 541 127 556 83 q 527 225 527 171 q 541 330 527 284 q 581 406 556 375 q 639 454 607 437 q 709 471 672 471 q 778 455 746 471 q 837 407 811 439 q 964 471 888 471 q 1034 454 1001 471 q 1092 406 1066 437 q 1132 330 1117 375 q 1146 225 1146 284 m 30 704 q 45 809 30 763 q 85 885 59 854 q 143 933 110 916 q 212 950 176 950 q 282 933 249 950 q 340 885 314 916 q 380 809 366 854 q 394 704 394 763 q 380 606 394 650 q 340 532 366 562 q 282 485 314 501 q 212 469 249 469 q 143 485 176 469 q 85 532 110 501 q 45 606 59 562 q 30 704 30 650 m 187 0 l 80 0 q 92 16 85 6 q 120 55 99 26 q 180 143 140 85 q 291 304 220 201 q 467 562 361 407 q 726 940 573 717 l 837 940 l 187 0 m 634 225 q 654 107 634 152 q 709 62 674 62 q 760 104 741 62 q 782 214 779 145 l 782 236 q 760 354 779 311 q 709 398 741 398 q 654 351 674 398 q 634 225 634 305 m 137 704 q 157 586 137 631 q 212 541 177 541 q 266 586 246 541 q 286 704 286 631 q 266 830 286 784 q 212 876 246 876 q 157 830 177 876 q 137 704 137 784 m 1039 225 q 1019 351 1039 305 q 964 398 999 398 q 912 354 932 398 q 891 236 892 311 l 891 225 q 911 107 891 152 q 964 62 931 62 q 1019 107 999 62 q 1039 225 1039 152 z "},"‹":{"ha":468,"x_min":56,"x_max":423,"o":"m 423 702 l 423 597 l 198 426 l 423 255 l 423 150 l 56 390 l 56 463 l 423 702 z "},"›":{"ha":468,"x_min":56,"x_max":423,"o":"m 423 463 l 423 390 l 56 150 l 56 255 l 281 426 l 56 597 l 56 702 l 423 463 z "},"⁄":{"ha":262,"x_min":-238,"x_max":517,"o":"m -133 0 l -238 0 q -225 18 -233 6 q -196 59 -217 29 q -136 148 -176 89 q -26 308 -96 206 q 150 564 45 410 q 407 940 255 718 l 517 940 l -133 0 z "},"€":{"ha":867,"x_min":45,"x_max":829,"o":"m 152 635 q 215 771 174 712 q 310 871 255 830 q 428 932 364 912 q 562 953 492 953 q 719 937 656 953 q 819 902 782 921 l 819 754 q 731 826 792 800 q 578 852 670 852 q 416 795 482 852 q 319 635 350 738 l 699 635 l 667 530 l 300 530 q 298 498 299 514 q 297 465 297 482 q 297 437 297 450 q 299 412 297 425 l 651 412 l 619 307 l 319 307 q 421 147 351 206 q 581 88 490 88 q 653 95 616 88 q 723 115 690 102 q 784 148 757 128 q 829 195 811 168 l 829 49 q 710 6 782 21 q 557 -10 639 -10 q 420 12 485 -10 q 302 74 354 34 q 210 173 249 115 q 150 307 171 231 l 45 307 l 45 412 l 131 412 q 129 438 129 425 q 129 465 129 452 q 129 498 129 482 q 133 530 129 514 l 45 530 l 45 635 l 152 635 z "},"™":{"ha":640,"x_min":11,"x_max":618,"o":"m 13 940 l 247 940 l 249 881 q 231 898 241 892 q 196 904 220 904 l 153 904 l 153 701 q 160 664 153 675 q 169 651 168 653 l 89 651 q 99 663 91 651 q 107 701 107 675 l 107 904 l 64 904 q 30 898 40 904 q 11 881 19 892 l 13 940 m 327 940 q 357 892 326 939 q 449 736 388 846 q 532 892 506 845 q 556 940 557 939 l 618 940 q 608 927 616 939 q 600 891 600 915 l 600 701 q 608 663 600 675 q 618 651 616 651 l 538 651 q 547 664 540 653 q 554 701 554 675 l 554 840 q 490 718 517 766 q 455 651 463 669 l 434 651 q 416 685 431 659 q 382 741 401 710 q 346 799 362 771 q 324 840 329 827 l 324 701 q 331 664 324 675 q 340 651 338 653 l 270 651 q 279 663 271 651 q 286 701 286 675 l 286 891 q 279 927 286 915 q 270 940 271 939 l 327 940 z "},"−":{"ha":736,"x_min":77,"x_max":683,"o":"m 683 479 l 683 374 l 77 374 l 77 479 l 683 479 z "},"ﬁ":{"ha":714,"x_min":14,"x_max":663,"o":"m 632 113 q 646 29 632 54 q 663 0 659 3 l 461 0 q 479 27 465 2 q 493 113 493 53 l 493 564 l 255 564 l 255 113 q 269 29 255 54 q 286 0 283 3 l 85 0 q 102 27 88 2 q 117 113 117 53 l 117 564 l 14 564 l 14 653 l 117 653 l 117 725 q 134 821 117 774 q 188 903 152 867 q 280 960 223 939 q 417 982 337 982 q 522 974 479 982 q 597 956 565 966 l 597 785 q 534 856 576 827 q 410 886 492 886 q 343 872 372 886 q 295 837 314 859 q 266 785 276 814 q 255 722 255 755 l 255 653 l 663 653 q 646 625 659 650 q 632 540 632 600 l 632 113 z "},"ﬂ":{"ha":707,"x_min":14,"x_max":674,"o":"m 643 113 q 657 29 643 54 q 674 0 670 3 l 473 0 q 490 27 476 2 q 504 113 504 53 l 504 846 q 454 872 489 859 q 374 886 420 886 q 291 860 327 886 q 255 769 255 835 l 255 653 l 410 653 l 410 564 l 255 564 l 255 113 q 269 29 255 54 q 286 0 283 3 l 85 0 q 102 27 88 2 q 117 113 117 53 l 117 564 l 14 564 l 14 653 l 117 653 l 117 773 q 176 927 117 872 q 326 982 236 982 q 438 967 398 982 q 504 940 479 953 l 508 972 l 674 972 q 657 944 670 969 q 643 859 643 920 l 643 113 z "}}}
